<svg xmlns="http://www.w3.org/2000/svg" xmlns:xlink="http://www.w3.org/1999/xlink" width="1440" height="880" viewBox="0 0 1440 880">
  <defs>
    <clipPath id="clip-path">
      <rect id="Rectangle_9596" data-name="Rectangle 9596" width="1440" height="880" fill="#fff" stroke="#707070" stroke-width="1"/>
    </clipPath>
    <clipPath id="clip-path-2">
      <rect id="Rectangle_10" data-name="Rectangle 10" width="953.156" height="878.835" transform="translate(0 0)" fill="none" stroke="#0063b0" stroke-miterlimit="10" stroke-width="0.25"/>
    </clipPath>
    <clipPath id="clip-path-3">
      <rect id="Rectangle_8" data-name="Rectangle 8" width="953.162" height="878.835" transform="translate(0 0)" fill="none" stroke="#0063b0" stroke-miterlimit="10" stroke-width="0.25"/>
    </clipPath>
    <linearGradient id="linear-gradient" x1="6.618" y1="9.185" x2="6.62" y2="9.185" gradientUnits="objectBoundingBox">
      <stop offset="0" stop-color="#0052a2"/>
      <stop offset="1" stop-color="#10b2c1"/>
    </linearGradient>
    <linearGradient id="linear-gradient-2" x1="6.922" y1="9.611" x2="6.924" y2="9.611" xlink:href="#linear-gradient"/>
    <linearGradient id="linear-gradient-3" x1="7.257" y1="10.082" x2="7.259" y2="10.082" xlink:href="#linear-gradient"/>
    <linearGradient id="linear-gradient-4" x1="7.628" y1="10.604" x2="7.63" y2="10.604" xlink:href="#linear-gradient"/>
    <linearGradient id="linear-gradient-5" x1="8.04" y1="11.186" x2="8.042" y2="11.186" xlink:href="#linear-gradient"/>
    <linearGradient id="linear-gradient-6" x1="8.501" y1="11.839" x2="8.504" y2="11.839" xlink:href="#linear-gradient"/>
    <linearGradient id="linear-gradient-7" x1="9.021" y1="12.576" x2="9.023" y2="12.576" xlink:href="#linear-gradient"/>
    <clipPath id="clip-path-4">
      <rect id="Rectangle_6" data-name="Rectangle 6" width="646.644" height="589.072" transform="translate(0 0)" fill="none" stroke="#0063b0" stroke-miterlimit="10" stroke-width="0.25"/>
    </clipPath>
    <clipPath id="clip-path-5">
      <path id="Path_29" data-name="Path 29" d="M568.563,0c-16.052.112-32.115,6.947-45.989,21.35L509.08,35.363l-.881.919-213.329,222.1L154.6,226.623l-17.834-41.951c-19.357-45.516-61.564-54.941-98.587-31.13-9.255,5.942-16.273,15.846-22.51,25.167-18.73,28-20.562,74.227-6.053,108.359l93.605,220.116c.117.314.289.586.423.877l.73,1.751,8.661,20.475c24.155,54.774,87.316,78.814,126.287,39.052.71-.749,48.447-50,49.021-50.583.255-.27,21.122-22,21.325-22.226L487.145,311.922,616.89,176.957a110.052,110.052,0,0,0,26.935-51.793c5.95-29.23,2.966-63.718-14.019-88.448C613.612,13.121,591.514.143,569.32,0Z" fill="none" stroke="#0063b0" stroke-miterlimit="10" stroke-width="0.25"/>
    </clipPath>
    <linearGradient id="linear-gradient-8" x1="7.681" y1="8.268" x2="7.683" y2="8.268" xlink:href="#linear-gradient"/>
    <linearGradient id="linear-gradient-9" x1="10.286" y1="14.382" x2="10.289" y2="14.382" xlink:href="#linear-gradient"/>
    <linearGradient id="linear-gradient-10" x1="11.067" y1="15.503" x2="11.07" y2="15.503" xlink:href="#linear-gradient"/>
    <linearGradient id="linear-gradient-11" x1="11.98" y1="16.82" x2="11.984" y2="16.82" xlink:href="#linear-gradient"/>
    <linearGradient id="linear-gradient-12" x1="13.062" y1="18.387" x2="13.065" y2="18.387" xlink:href="#linear-gradient"/>
    <linearGradient id="linear-gradient-13" x1="14.363" y1="20.284" x2="14.367" y2="20.284" xlink:href="#linear-gradient"/>
    <linearGradient id="linear-gradient-14" x1="15.955" y1="22.627" x2="15.96" y2="22.627" xlink:href="#linear-gradient"/>
    <linearGradient id="linear-gradient-15" x1="17.951" y1="25.589" x2="17.956" y2="25.589" xlink:href="#linear-gradient"/>
    <linearGradient id="linear-gradient-16" x1="20.519" y1="29.446" x2="20.524" y2="29.446" xlink:href="#linear-gradient"/>
    <linearGradient id="linear-gradient-17" x1="23.94" y1="34.676" x2="23.947" y2="34.676" xlink:href="#linear-gradient"/>
    <linearGradient id="linear-gradient-18" x1="28.71" y1="41.785" x2="28.718" y2="41.785" xlink:href="#linear-gradient"/>
    <linearGradient id="linear-gradient-19" x1="35.794" y1="47.828" x2="35.803" y2="47.828" xlink:href="#linear-gradient"/>
    <linearGradient id="linear-gradient-20" x1="43.49" y1="53.847" x2="43.502" y2="53.847" xlink:href="#linear-gradient"/>
    <linearGradient id="linear-gradient-21" x1="43.517" y1="61.226" x2="43.529" y2="61.226" xlink:href="#linear-gradient"/>
    <clipPath id="clip-path-6">
      <rect id="Rectangle_10-2" data-name="Rectangle 10" width="953.155" height="878.835" fill="none" stroke="#0063b0" stroke-miterlimit="10" stroke-width="0.25"/>
    </clipPath>
    <clipPath id="clip-path-7">
      <rect id="Rectangle_8-2" data-name="Rectangle 8" width="953.162" height="878.835" fill="none" stroke="#0063b0" stroke-miterlimit="10" stroke-width="0.25"/>
    </clipPath>
    <clipPath id="clip-path-8">
      <rect id="Rectangle_6-2" data-name="Rectangle 6" width="646.644" height="589.072" fill="none" stroke="#0063b0" stroke-miterlimit="10" stroke-width="0.25"/>
    </clipPath>
    <clipPath id="clip-path-9">
      <path id="Path_29-2" data-name="Path 29" d="M638.528,300.517c-16.052.112-32.115,6.947-45.989,21.35L579.045,335.88l-.881.919-213.329,222.1L224.563,527.14,206.729,485.19c-19.357-45.516-61.564-54.941-98.587-31.13-9.255,5.942-16.273,15.846-22.51,25.167-18.73,28-20.562,74.227-6.053,108.359L173.184,807.7c.117.314.289.586.423.877l.73,1.751L183,830.8c24.155,54.774,87.316,78.814,126.287,39.052.71-.749,48.447-50,49.021-50.583.255-.27,21.122-22,21.325-22.226L557.11,612.439,686.855,477.474a110.051,110.051,0,0,0,26.935-51.793c5.95-29.231,2.966-63.718-14.019-88.447-16.194-23.6-38.292-36.574-60.486-36.717Z" transform="translate(-69.965 -300.517)" fill="none" stroke="#0063b0" stroke-miterlimit="10" stroke-width="0.25"/>
    </clipPath>
  </defs>
  <g id="Mask-bg" clip-path="url(#clip-path)">
    <g id="Group_4503" data-name="Group 4503" transform="translate(1392.768 1415.037) rotate(-159)" opacity="0.1">
      <g id="Group_12" data-name="Group 12" transform="translate(0 0)" clip-path="url(#clip-path-2)">
        <g id="Group_11" data-name="Group 11" transform="translate(-0.003 0)">
          <g id="Group_10" data-name="Group 10" clip-path="url(#clip-path-3)">
            <path id="Path_22" data-name="Path 22" d="M248.869,382.587l-29.394-69.139c-20.778-48.859-61.282-76.813-103.21-76.813-18.171,0-36.61,5.252-53.825,16.327a124.71,124.71,0,0,0-35.886,35.78C9.356,314.437,0,346.791,0,379.872A169.463,169.463,0,0,0,13.282,446.1L148.7,764.586c.2.479.458.9.661,1.377l1.12,2.667,12.678,29.984c22.776,51.638,65.641,79.807,109.219,79.807,27.548,0,55.379-11.256,78.6-34.96l72.4-74.685L910.048,262.551C930,241.43,943.289,214.368,949.2,185.261a181.547,181.547,0,0,0,3.615-36.11c0-34.047-9.505-68.2-28.771-96.25C900.063,17.974,865.9,0,831.5,0c-27.593,0-55.342,11.566-78.119,35.22l-21.34,22.122-1.356,1.439L389.14,414.322h0L730.688,58.781l1.356-1.439,21.34-22.122C776.162,11.566,803.911,0,831.5,0c34.4,0,68.559,17.974,92.544,52.9,19.266,28.05,28.771,62.2,28.771,96.25a181.532,181.532,0,0,1-3.615,36.11c-5.917,29.109-19.207,56.172-39.156,77.291L423.381,768.777l-72.4,74.685c-23.224,23.7-51.055,34.96-78.6,34.96-43.577,0-86.443-28.171-109.219-79.807l-12.678-29.984-1.12-2.667c-.2-.481-.46-.9-.661-1.377L13.282,446.1A169.463,169.463,0,0,1,0,379.872c0-33.081,9.356-65.435,26.554-91.131a124.751,124.751,0,0,1,35.886-35.78c17.215-11.074,35.653-16.327,53.825-16.327,41.927,0,82.431,27.955,103.21,76.813l29.394,69.139Z" transform="translate(0.165 0.206)" stroke="#0063b0" stroke-miterlimit="10" stroke-width="0.25" fill="url(#linear-gradient)"/>
            <path id="Path_23" data-name="Path 23" d="M375.666,392.047l323.241-336.5,1.287-1.334L720.4,33.234C741.927,10.88,768.015,0,793.97,0c32.68,0,65.151,17.254,88.044,50.581,18.2,26.511,27.052,58.944,27.052,91.218a175.206,175.206,0,0,1-3.491,34.865c-5.626,27.647-18.458,53.605-37.41,73.663L684.974,440.879,434.368,701.55c-.035.041-30.242,31.483-30.292,31.506-.069.083-68.941,71.14-69.042,71.225-21.8,22.26-47.953,32.767-73.925,32.767-41.9,0-83.306-27.342-105.113-76.783l-12.1-28.628-1.066-2.523c-.206-.438-.426-.855-.613-1.292L12.743,423.386A163.379,163.379,0,0,1,0,359.614c0-31.491,8.755-62.328,25-86.6,9.119-13.616,20.459-25.562,33.97-34.279,16.6-10.672,34.349-15.759,51.8-15.759,39.408,0,77.275,25.948,96.883,72.077l27.749,65.26h0l-27.749-65.26c-19.61-46.129-57.477-72.077-96.883-72.077-17.446,0-35.195,5.087-51.8,15.759C45.457,247.451,34.117,259.4,25,273.013c-16.245,24.274-25,55.11-25,86.6a163.379,163.379,0,0,0,12.743,63.772L142.215,727.822c.186.438.406.855.613,1.292l1.066,2.523L156,760.265c21.809,49.441,63.216,76.783,105.113,76.783,25.971,0,52.129-10.507,73.925-32.767.1-.085,68.973-71.142,69.042-71.225.05-.023,30.257-31.465,30.292-31.506L684.974,440.879l183.19-190.553c18.952-20.058,31.784-46.016,37.41-73.663a175.206,175.206,0,0,0,3.491-34.865c0-32.274-8.854-64.707-27.052-91.218C859.121,17.252,826.65,0,793.97,0,768.015,0,741.927,10.88,720.4,33.234L700.195,54.21l-1.287,1.334-323.241,336.5Z" transform="translate(13.635 22.489)" stroke="#0063b0" stroke-miterlimit="10" stroke-width="0.25" fill="url(#linear-gradient-2)"/>
            <path id="Path_24" data-name="Path 24" d="M362.191,369.754,667.108,52.327l1.22-1.27,19.1-19.81C707.7,10.2,732.132,0,756.453,0c30.955,0,61.73,16.527,83.506,48.262,17.149,24.969,25.356,55.676,25.356,86.168a169.029,169.029,0,0,1-3.37,33.639c-5.339,26.187-17.713,51-35.682,70.036L651.988,419.379,413.57,667.35c-.05.084-28.716,29.9-28.783,29.984-.17.167-65.517,67.577-65.72,67.785-20.369,20.8-44.851,30.548-69.24,30.546-40.215,0-80.17-26.509-101-73.727L137.3,694.664l-1.017-2.4c-.186-.438-.406-.813-.593-1.231L12.218,400.634A157.388,157.388,0,0,1,0,339.272c0-29.871,8.142-59.149,23.422-81.985,8.646-12.926,19.257-24.5,32.073-32.755,16-10.288,33.065-15.218,49.793-15.218,36.875,0,72.1,23.962,90.545,67.323l26.087,61.383h0l-26.087-61.383c-18.448-43.361-53.67-67.323-90.545-67.323-16.728,0-33.8,4.93-49.793,15.218-12.815,8.256-23.427,19.828-32.073,32.755C8.142,280.123,0,309.4,0,339.272a157.388,157.388,0,0,0,12.218,61.362l123.473,290.4c.186.417.406.793.593,1.231l1.017,2.4,11.526,27.273c20.83,47.217,60.787,73.729,101,73.727,24.389,0,48.871-9.749,69.24-30.546.2-.208,65.551-67.618,65.72-67.785.067-.085,28.733-29.9,28.783-29.984L651.988,419.379,826.262,238.1c17.969-19.036,30.342-43.848,35.682-70.036a169.029,169.029,0,0,0,3.37-33.639c0-30.492-8.206-61.2-25.356-86.168C818.184,16.527,787.408,0,756.453,0,732.13,0,707.7,10.2,687.433,31.248l-19.1,19.81-1.22,1.27L362.191,369.754Z" transform="translate(27.11 44.783)" stroke="#0063b0" stroke-miterlimit="10" stroke-width="0.25" fill="url(#linear-gradient-3)"/>
            <path id="Path_25" data-name="Path 25" d="M348.718,347.475,635.327,49.107l1.153-1.189,17.968-18.66C673.46,9.518,696.23,0,718.912,0c29.238,0,58.325,15.819,79.01,45.958,16.083,23.4,23.645,52.356,23.645,81.071a163.222,163.222,0,0,1-3.253,32.46c-5.034,24.728-16.968,48.436-33.936,66.367L619.021,397.89,392.79,633.207c-.084.085-27.19,28.293-27.308,28.4-.238.25-62.059,64.052-62.363,64.343-18.955,19.345-41.771,28.355-64.581,28.355-38.527,0-77.033-25.7-96.88-70.7l-10.951-25.917-.965-2.25c-.17-.417-.374-.772-.561-1.169L11.677,377.938A151.617,151.617,0,0,1,0,318.977c0-28.271,7.542-56,21.866-77.4,8.171-12.2,18.069-23.456,30.156-31.233,15.4-9.9,31.788-14.679,47.8-14.679,34.337,0,66.924,21.984,84.182,62.595l24.444,57.483h0L184,258.257c-17.258-40.611-49.847-62.595-84.182-62.595-16.011,0-32.4,4.779-47.8,14.679-12.087,7.777-21.985,19.038-30.156,31.233C7.542,262.974,0,290.706,0,318.977a151.647,151.647,0,0,0,11.677,58.961L129.183,654.266c.186.4.391.752.561,1.169l.965,2.25L141.659,683.6c19.848,45,58.353,70.7,96.88,70.7,22.809,0,45.625-9.01,64.581-28.355.3-.291,62.125-64.093,62.363-64.343.118-.105,27.224-28.314,27.308-28.4L619.021,397.89,784.379,225.855c16.968-17.931,28.9-41.639,33.936-66.367a163.237,163.237,0,0,0,3.253-32.46c0-28.714-7.562-57.666-23.645-81.071C777.236,15.819,748.15,0,718.912,0c-22.682,0-45.454,9.52-64.463,29.257L636.48,47.917l-1.153,1.189L348.718,347.475Z" transform="translate(40.583 67.062)" stroke="#0063b0" stroke-miterlimit="10" stroke-width="0.25" fill="url(#linear-gradient-4)"/>
            <path id="Path_26" data-name="Path 26" d="M335.249,325.181,603.535,45.892l1.084-1.127L621.47,27.271C639.225,8.841,660.351,0,681.4,0c27.509,0,54.894,15.1,74.472,43.619,15.023,21.862,21.941,49.08,21.941,76.023a157.594,157.594,0,0,1-3.125,31.252c-4.745,23.289-16.221,45.849-32.19,62.719L586.042,376.369,372,599.03c-.119.124-25.664,26.687-25.8,26.854-.339.334-58.634,60.466-59.041,60.9-17.535,17.9-38.678,26.169-59.9,26.168-36.831,0-73.9-24.922-92.764-67.7l-10.392-24.54-.9-2.147c-.17-.376-.356-.71-.525-1.086L11.16,355.184A145.511,145.511,0,0,1,0,298.63c0-26.652,6.949-52.821,20.313-72.8,7.679-11.467,16.867-22.393,28.241-29.712,14.791-9.518,30.5-14.153,45.785-14.153,31.791,0,61.757,20.043,77.841,57.877l22.8,53.605h0l-22.8-53.605c-16.083-37.834-46.05-57.877-77.841-57.877-15.286,0-31,4.635-45.785,14.153-11.374,7.319-20.562,18.245-28.241,29.712C6.949,245.809,0,271.978,0,298.63a145.511,145.511,0,0,0,11.16,56.554l111.522,262.3c.17.376.356.71.525,1.086l.9,2.147,10.392,24.54c18.865,42.783,55.933,67.7,92.764,67.7,21.221,0,42.362-8.273,59.9-26.168.408-.438,58.7-60.569,59.041-60.9.136-.167,25.681-26.731,25.8-26.854L586.042,376.369,742.5,213.612c15.969-16.87,27.445-39.43,32.19-62.719a157.594,157.594,0,0,0,3.125-31.252c0-26.943-6.919-54.161-21.941-76.023C736.3,15.1,708.911,0,681.4,0c-21.052,0-42.177,8.84-59.933,27.271L604.619,44.765l-1.084,1.127L335.249,325.181Z" transform="translate(54.052 89.355)" stroke="#0063b0" stroke-miterlimit="10" stroke-width="0.25" fill="url(#linear-gradient-5)"/>
            <path id="Path_27" data-name="Path 27" d="M321.791,302.914,571.769,42.7l1-1.063L588.5,25.314C605,8.174,624.483,0,643.908,0c25.782,0,51.465,14.394,69.947,41.327,13.952,20.289,20.233,45.737,20.233,70.89a151.931,151.931,0,0,1-3.011,30.108,124.3,124.3,0,0,1-30.443,59.089L553.072,354.895,351.219,564.857c-.136.147-24.139,25.147-24.308,25.312-.408.438-55.193,56.944-55.684,57.464-16.132,16.457-35.613,24.007-55.251,24.007-35.128,0-70.762-24.158-88.647-64.707l-9.8-23.185-.848-2c-.151-.374-.339-.667-.473-1.043L10.652,332.5A139.756,139.756,0,0,1,0,278.277c0-25.031,6.362-49.612,18.772-68.146C25.96,199.372,34.418,188.779,45.1,181.92c14.2-9.132,29.236-13.626,43.8-13.626,29.233,0,56.572,18.1,71.484,53.157l21.137,49.728h0l-21.137-49.728C145.471,186.4,118.13,168.294,88.9,168.294c-14.564,0-29.6,4.495-43.8,13.626-10.68,6.859-19.138,17.452-26.326,28.211C6.362,228.665,0,253.246,0,278.277A139.748,139.748,0,0,0,10.652,332.5L116.208,580.7c.134.376.322.669.473,1.043l.848,2,9.8,23.185c17.884,40.549,53.519,64.707,88.647,64.707,19.639,0,39.119-7.55,55.251-24.007.492-.52,55.276-57.026,55.684-57.464.17-.165,24.172-25.165,24.308-25.312L553.072,354.895l147.561-153.48a124.3,124.3,0,0,0,30.443-59.089,151.947,151.947,0,0,0,3.011-30.108c0-25.153-6.283-50.6-20.233-70.89C695.372,14.394,669.69,0,643.908,0,624.483,0,605,8.174,588.5,25.314L572.77,41.639l-1,1.063L321.791,302.914Z" transform="translate(67.51 111.622)" stroke="#0063b0" stroke-miterlimit="10" stroke-width="0.25" fill="url(#linear-gradient-6)"/>
            <path id="Path_28" data-name="Path 28" d="M308.33,280.631,539.983,39.5l.95-1,14.611-15.179C570.787,7.5,588.625,0,606.422,0c24.048,0,48.019,13.688,65.408,39.017,12.862,18.724,18.524,42.364,18.524,65.708a146.3,146.3,0,0,1-2.912,29.016,117.052,117.052,0,0,1-28.681,55.441L520.117,333.4,330.451,530.69c-.186.188-22.613,23.541-22.833,23.77-.475.5-51.735,53.376-52.346,54.022-14.721,15.02-32.531,21.858-50.578,21.858-33.407,0-67.619-23.425-84.523-61.723l-9.22-21.852-.781-1.856c-.153-.353-.322-.626-.458-.958L10.125,309.758A134.051,134.051,0,0,1,0,257.894c0-23.4,5.771-46.379,17.21-63.478,6.731-10.05,14.46-20.266,24.427-26.689,13.626-8.768,28-13.143,41.848-13.143,26.656,0,51.371,16.205,65.079,48.464L168.059,248.9h0l-19.494-45.849c-13.71-32.259-38.423-48.464-65.079-48.464-13.849,0-28.222,4.375-41.848,13.143-9.967,6.423-17.7,16.639-24.427,26.689C5.769,211.514,0,234.5,0,257.894a134.051,134.051,0,0,0,10.125,51.865L109.712,543.95c.136.332.305.605.458.958l.781,1.856,9.22,21.852c16.9,38.3,51.117,61.723,84.523,61.723,18.047,0,35.858-6.838,50.578-21.858.611-.646,51.871-53.523,52.346-54.022.22-.229,22.646-23.582,22.833-23.77L520.117,333.4,658.761,189.182a117.052,117.052,0,0,0,28.681-55.441,146.335,146.335,0,0,0,2.912-29.016c0-23.344-5.662-46.984-18.524-65.708C654.441,13.688,630.468,0,606.422,0c-17.8,0-35.636,7.5-50.877,23.318L540.933,38.5l-.95,1L308.33,280.631Z" transform="translate(80.971 133.905)" stroke="#0063b0" stroke-miterlimit="10" stroke-width="0.25" fill="url(#linear-gradient-7)"/>
            <g id="Group_9" data-name="Group 9" transform="translate(94.424 156.167)" opacity="0.15">
              <g id="Group_8" data-name="Group 8">
                <g id="Group_7" data-name="Group 7" clip-path="url(#clip-path-4)">
                  <g id="Group_6" data-name="Group 6" transform="translate(0.008 0.001)">
                    <g id="Group_5" data-name="Group 5" transform="translate(0)" clip-path="url(#clip-path-5)">
                      <path id="Path_8544" data-name="Path 8544" d="M89.158,92,983.069,0,893.91,907.149,0,999.146Z" transform="translate(-373.306 220.189) rotate(-38.551)" stroke="#0063b0" stroke-width="0.25" fill="url(#linear-gradient-8)"/>
                    </g>
                    <path id="Path_30" data-name="Path 30" d="M568.563,0c-16.052.112-32.115,6.947-45.989,21.35L509.08,35.363l-.881.919-213.329,222.1L154.6,226.623l-17.834-41.951c-19.357-45.516-61.564-54.941-98.587-31.13-9.255,5.942-16.273,15.846-22.51,25.167-18.73,28-20.562,74.227-6.053,108.359l93.605,220.116c.117.314.289.586.423.877l.73,1.751,8.661,20.475c24.155,54.774,87.316,78.814,126.287,39.052.71-.749,48.447-50,49.021-50.583.255-.27,21.122-22,21.325-22.226L487.145,311.922,616.89,176.957a110.052,110.052,0,0,0,26.935-51.793c5.95-29.23,2.966-63.718-14.019-88.448C613.612,13.121,591.514.143,569.32,0Z" transform="translate(0)" fill="none" stroke="#0063b0" stroke-miterlimit="10" stroke-width="0.25"/>
                  </g>
                </g>
                <rect id="Rectangle_7" data-name="Rectangle 7" width="646.644" height="589.072" transform="translate(0 0)" fill="none" stroke="#0063b0" stroke-miterlimit="10" stroke-width="0.25"/>
              </g>
            </g>
            <path id="Path_31" data-name="Path 31" d="M281.43,236.1l195.005-203,.814-.855L489.64,19.376C502.365,6.163,516.949,0,531.512,0c20.575,0,41.107,12.3,56.292,34.411C598.5,49.984,602.941,69.99,602.941,89.7a135.829,135.829,0,0,1-2.711,26.9c-3.543,17.431-13.238,35.486-25.206,48.142L454.195,290.432,288.9,462.384c-.22.229-19.544,20.351-19.832,20.663-.645.688-44.853,46.288-45.667,47.122-11.949,12.194-26.462,17.65-41.335,17.65-29.914,0-61.282-22.083-76.171-55.87l-8.085-19.118-.678-1.606c-.119-.25-.272-.52-.406-.813L9.126,264.347C3.092,250.17,0,233.457,0,217.01c0-20.1,4.618-39.808,14.126-54.016,5.764-8.612,12.07-18.16,20.614-23.665,12.5-8.033,25.538-12.2,37.927-12.2,21.47,0,40.981,12.524,52.321,39.164l16.171,38.071h0l-16.171-38.071c-11.34-26.642-30.851-39.164-52.321-39.164-12.389,0-25.429,4.17-37.927,12.2-8.544,5.5-14.85,15.053-20.614,23.665C4.618,177.2,0,196.909,0,217.01c0,16.447,3.092,33.16,9.126,47.337l87.6,206.064c.134.293.287.564.406.813l.678,1.606,8.085,19.118c14.888,33.787,46.256,55.87,76.171,55.87,14.873,0,29.386-5.459,41.335-17.65.814-.834,45.022-46.435,45.667-47.122.287-.312,19.612-20.433,19.832-20.663L454.195,290.432,575.024,164.745c11.968-12.656,21.663-30.711,25.206-48.142a135.844,135.844,0,0,0,2.711-26.9c0-19.715-4.441-39.721-15.137-55.294C572.618,12.3,552.087,0,531.512,0c-14.563,0-29.147,6.163-41.872,19.376L477.249,32.243l-.814.855L281.43,236.1Z" transform="translate(107.871 178.441)" stroke="#0063b0" stroke-miterlimit="10" stroke-width="0.25" fill="url(#linear-gradient-9)"/>
            <path id="Path_32" data-name="Path 32" d="M268,213.845,444.693,29.9l.747-.772,11.256-11.7C468.18,5.512,481.163,0,494.126,0c18.819,0,37.592,11.619,51.664,32.113,9.608,13.994,13.468,32.14,13.468,50.032a131.052,131.052,0,0,1-2.62,25.907c-3.255,15.993-12.476,32.9-23.461,44.515L421.268,268.995,268.148,428.23c-.238.291-18.019,18.786-18.341,19.118-.73.772-41.412,42.764-42.327,43.7a50.3,50.3,0,0,1-36.734,15.586c-28.13,0-58.093-21.493-71.991-52.992L91.262,435.9l-.628-1.48c-.118-.25-.253-.479-.356-.731L8.626,241.68C2.964,228.368,0,212.317,0,196.566c0-18.439,4.062-36.471,12.609-49.234,5.289-7.9,10.867-17.138,18.7-22.164,11.963-7.695,24.343-11.81,35.994-11.81,18.841,0,35.767,10.767,45.9,34.578l14.527,34.173h0L113.2,147.937c-10.13-23.811-27.056-34.578-45.9-34.578-11.651,0-24.031,4.115-35.994,11.81-7.83,5.025-13.408,14.262-18.7,22.164C4.06,160.1,0,178.127,0,196.566c0,15.751,2.964,31.8,8.626,45.114L90.278,433.69c.1.252.238.481.356.731l.628,1.48,7.493,17.743c13.9,31.5,43.861,52.992,71.991,52.992a50.3,50.3,0,0,0,36.734-15.586c.915-.94,41.6-42.931,42.327-43.7.322-.333,18.1-18.827,18.341-19.118l153.12-159.235L533.179,152.566c10.984-11.613,20.206-28.522,23.461-44.515a131.052,131.052,0,0,0,2.62-25.907c0-17.892-3.861-36.038-13.468-50.032C531.718,11.62,512.944,0,494.126,0,481.163,0,468.18,5.512,456.7,17.436l-11.256,11.7-.747.772L268,213.845Z" transform="translate(121.306 200.691)" stroke="#0063b0" stroke-miterlimit="10" stroke-width="0.25" fill="url(#linear-gradient-10)"/>
            <path id="Path_33" data-name="Path 33" d="M254.565,191.6,412.939,26.72l.678-.69L423.754,15.5C433.992,4.868,445.389,0,456.761,0c17.06,0,34.069,10.957,47.037,29.846,8.508,12.379,11.8,28.617,11.8,44.651a126.6,126.6,0,0,1-2.545,24.99c-2.966,14.553-11.748,30.317-21.715,40.887L388.327,247.525,247.412,394.1c-.289.335-16.51,17.182-16.866,17.576-.8.857-37.971,39.2-38.988,40.221a43.956,43.956,0,0,1-32.2,13.581c-26.3,0-54.86-20.958-67.728-50.13L84.7,398.96l-.559-1.334c-.1-.229-.22-.458-.322-.667L8.129,218.98C2.845,206.545,0,191.12,0,176.042c0-16.752,3.513-33.079,11.1-44.405,4.8-7.193,9.661-16.054,16.763-20.619,11.446-7.367,23.168-11.469,34.062-11.469,16.211,0,30.589,9.086,39.49,30.026l12.883,30.294h0l-12.883-30.294c-8.9-20.939-23.279-30.026-39.49-30.026-10.893,0-22.616,4.1-34.062,11.469-7.1,4.565-11.966,13.426-16.763,20.619C3.513,142.963,0,159.29,0,176.042c0,15.078,2.847,30.5,8.129,42.938L83.816,396.959c.1.208.22.438.322.667l.559,1.334,6.934,16.389c12.867,29.173,41.426,50.13,67.728,50.13a43.956,43.956,0,0,0,32.2-13.581c1.017-1.02,38.191-39.364,38.988-40.221.356-.394,16.577-17.241,16.866-17.576L388.327,247.525,491.339,140.374c9.967-10.571,18.749-26.334,21.715-40.887A126.6,126.6,0,0,0,515.6,74.5c0-16.034-3.293-32.272-11.8-44.651C490.83,10.957,473.822,0,456.761,0c-11.372,0-22.769,4.868-33.008,15.5l-10.136,10.53-.678.69L254.565,191.6Z" transform="translate(134.736 222.933)" stroke="#0063b0" stroke-miterlimit="10" stroke-width="0.25" fill="url(#linear-gradient-11)"/>
            <path id="Path_34" data-name="Path 34" d="M241.163,169.374,381.23,23.567l.609-.625,9.018-9.384C399.843,4.226,409.663,0,419.455,0c15.3,0,30.524,10.317,42.377,27.591,7.392,10.769,10.14,25.056,10.14,39.211a123.211,123.211,0,0,1-2.477,24.154c-2.662,13.094-11,27.73-19.969,37.239l-94.112,97.891-128.728,133.9c-.3.332-14.967,15.617-15.357,16.013-.881.958-34.547,35.653-35.648,36.8a37.763,37.763,0,0,1-27.72,11.607c-24.439,0-51.6-20.516-63.426-47.323L78.176,362.03l-.509-1.187c-.084-.208-.2-.4-.287-.626L7.677,196.333C2.751,184.747,0,169.871,0,155.429c0-15.028,2.979-29.584,9.593-39.473,4.322-6.444,8.476-14.973,14.883-19.12C35.4,89.81,46.429,85.664,56.524,85.664c13.571,0,25.458,7.492,33.145,25.558l11.223,26.417h0L89.669,111.222C81.98,93.157,70.094,85.664,56.524,85.664c-10.094,0-21.122,4.146-32.048,11.172-6.407,4.148-10.561,12.677-14.883,19.12C2.979,125.846,0,140.4,0,155.429c0,14.442,2.753,29.317,7.677,40.9l69.7,163.884c.084.229.2.417.287.626l.509,1.187,6.358,15.055c11.825,26.807,38.987,47.323,63.426,47.323a37.763,37.763,0,0,0,27.72-11.607c1.1-1.146,34.767-35.841,35.648-36.8.389-.4,15.053-15.681,15.357-16.013l128.728-133.9L449.525,128.2c8.968-9.509,17.307-24.146,19.969-37.239A123.211,123.211,0,0,0,471.972,66.8c0-14.155-2.749-28.442-10.14-39.211C449.978,10.317,434.751,0,419.455,0c-9.792,0-19.612,4.226-28.6,13.558l-9.018,9.384-.609.625L241.163,169.374Z" transform="translate(148.139 245.163)" stroke="#0063b0" stroke-miterlimit="10" stroke-width="0.25" fill="url(#linear-gradient-12)"/>
            <path id="Path_35" data-name="Path 35" d="M227.77,147.167,349.513,20.419l.542-.543,7.9-8.215C365.713,3.6,374,0,382.236,0c13.51,0,26.9,9.693,37.641,25.339,6.269,9.148,8.512,21.408,8.512,33.637a119.614,119.614,0,0,1-2.459,23.473c-2.357,11.634-10.239,25.165-18.224,33.589l-85.179,88.635-116.555,121.2c-.339.4-13.426,14.033-13.866,14.492-.967,1.022-31.089,32.109-32.31,33.339a31.688,31.688,0,0,1-23.324,9.706c-22.5,0-48.264-20.19-59.025-44.608l-5.779-13.657-.458-1.084a3.663,3.663,0,0,1-.255-.543L7.234,173.668C2.677,162.957,0,148.569,0,134.754c0-13.265,2.469-26,8.117-34.438,3.847-5.736,7.271-13.928,12.966-17.6,10.432-6.706,20.74-11.011,29.991-11.011,10.939,0,20.4,6.016,26.846,21.185L87.5,115.432h0L77.921,92.893C71.476,77.724,62.012,71.708,51.075,71.708c-9.252,0-19.56,4.3-29.991,11.011-5.7,3.671-9.119,11.863-12.966,17.6C2.469,108.753,0,121.489,0,134.754c0,13.814,2.679,28.2,7.234,38.914L70.954,323.519a3.663,3.663,0,0,0,.255.543l.458,1.084L77.446,338.8c10.761,24.418,36.521,44.608,59.025,44.608a31.685,31.685,0,0,0,23.324-9.706c1.22-1.23,31.343-32.317,32.31-33.339.44-.458,13.527-14.1,13.866-14.492l116.555-121.2,85.179-88.635c7.985-8.424,15.867-21.955,18.224-33.589a119.614,119.614,0,0,0,2.459-23.473c0-12.229-2.244-24.488-8.512-33.637C409.136,9.693,395.746,0,382.236,0,374,0,365.711,3.6,357.954,11.661l-7.9,8.215-.542.543L227.77,147.167Z" transform="translate(161.531 267.37)" stroke="#0063b0" stroke-miterlimit="10" stroke-width="0.25" fill="url(#linear-gradient-13)"/>
            <path id="Path_36" data-name="Path 36" d="M214.422,124.972,317.858,17.3l.457-.479,6.8-7.049c6.521-6.78,13.294-9.774,20-9.774,11.711,0,23.222,9.119,32.835,23.119,5.16,7.509,6.942,17.7,6.942,27.986a117.079,117.079,0,0,1-2.466,22.847c-2.068,10.2-9.494,22.56-16.476,29.941L289.668,183.25,185.317,291.8c-.373.417-11.917,12.448-12.374,12.927-1.051,1.127-27.665,28.566-28.988,29.92a25.8,25.8,0,0,1-19.038,7.864c-20.484,0-44.845-19.991-54.513-41.934l-5.2-12.321-.408-.937c-.067-.167-.153-.314-.22-.46L6.821,151.057C2.639,141.215,0,127.215,0,114.016,0,102.553,1.991,91.7,6.685,84.69c3.357-5.025,6.069-12.885,11.036-16.075C27.653,62.227,37.142,57.6,45.454,57.6c8.372,0,15.55,4.693,20.782,17l7.916,18.639h0L66.235,74.6C61,62.3,53.826,57.6,45.454,57.6c-8.312,0-17.8,4.625-27.732,11.013C12.755,71.8,10.043,79.665,6.685,84.69,1.989,91.7,0,102.553,0,114.016c0,13.2,2.639,27.2,6.821,37.041l57.752,135.8c.067.147.153.293.22.46l.408.937,5.2,12.321c9.67,21.943,34.028,41.934,54.513,41.934a25.8,25.8,0,0,0,19.038-7.864c1.323-1.354,27.937-28.793,28.988-29.92.457-.479,12-12.509,12.374-12.927L289.668,183.25l76.281-79.357c6.983-7.381,14.408-19.746,16.476-29.941a116.952,116.952,0,0,0,2.466-22.847c0-10.284-1.783-20.477-6.942-27.986C368.336,9.119,356.825,0,345.114,0c-6.707,0-13.482,2.994-20,9.774l-6.8,7.049-.457.479L214.422,124.972Z" transform="translate(174.879 289.564)" stroke="#0063b0" stroke-miterlimit="10" stroke-width="0.25" fill="url(#linear-gradient-14)"/>
            <path id="Path_37" data-name="Path 37" d="M201.108,102.819,286.22,14.2l.406-.438,5.662-5.857C297.6,2.4,302.925,0,308.153,0c9.888,0,19.437,8.585,27.92,20.939,4.049,5.884,5.418,13.959,5.418,22.254a115.069,115.069,0,0,1-2.536,22.3c-1.781,8.735-8.747,19.975-14.731,26.313L256.86,161.888,164.68,257.78c-.389.415-10.373,10.821-10.882,11.361-1.12,1.189-24.224,25.021-25.631,26.46a20.214,20.214,0,0,1-14.949,6.14c-18.346,0-41.271-19.987-49.821-39.376L58.77,251.4l-.339-.793c-.067-.144-.136-.27-.2-.417L6.459,128.445C2.655,119.5,0,105.741,0,93.153,0,83.577,1.536,74.681,5.272,69.1c2.88-4.294,4.864-11.843,9.136-14.553,9.368-6.035,17.849-11.229,25.072-11.229,5.952,0,11.05,3.528,15.085,13.021l6.273,14.741h0L54.565,56.343c-4.035-9.5-9.133-13.021-15.085-13.021-7.223,0-15.7,5.195-25.072,11.229C10.137,57.262,8.153,64.81,5.272,69.1,1.536,74.681,0,83.577,0,93.153c0,12.588,2.655,26.35,6.459,35.292L58.227,250.188c.067.147.136.273.2.417l.339.793L63.4,262.366c8.55,19.389,31.475,39.376,49.821,39.376a20.214,20.214,0,0,0,14.949-6.14c1.407-1.439,24.511-25.271,25.631-26.46.509-.541,10.492-10.946,10.882-11.361l92.18-95.892,67.365-70.077c5.984-6.338,12.95-17.578,14.731-26.313a115.069,115.069,0,0,0,2.536-22.3c0-8.3-1.37-16.37-5.418-22.254C327.59,8.585,318.041,0,308.153,0c-5.229,0-10.553,2.4-15.865,7.909l-5.662,5.857-.406.438-85.112,88.615Z" transform="translate(188.193 311.717)" stroke="#0063b0" stroke-miterlimit="10" stroke-width="0.25" fill="url(#linear-gradient-15)"/>
            <path id="Path_38" data-name="Path 38" d="M187.863,80.732,254.651,11.2l.339-.376,4.559-4.691C263.67,1.842,267.619,0,271.441,0c8.035,0,15.508,8.139,22.824,18.807,2.971,4.327,3.978,10.319,3.978,16.626,0,7.546-1.444,15.542-2.689,21.676-1.475,7.276-8,17.367-13,22.663L224.1,140.593l-79.992,83.193c-.406.479-8.847,9.258-9.373,9.821-1.22,1.313-20.782,21.476-22.309,23.039a14.948,14.948,0,0,1-11.08,4.534c-16.043,0-37.521-20.231-44.892-36.956l-4.069-9.59-.272-.669c-.05-.124-.117-.229-.17-.353L6.163,105.92C2.754,97.926,0,84.23,0,72.311c0-7.633,1.13-14.537,3.943-18.747,2.407-3.586,3.662-10.738,7.221-13.052C19.847,34.943,27,28.772,32.954,28.772c3.809,0,7.124,2.529,10.027,9.363L47.592,49h0L42.981,38.135c-2.9-6.836-6.219-9.363-10.027-9.363-5.95,0-13.107,6.171-21.79,11.739C7.605,42.826,6.35,49.978,3.943,53.564,1.13,57.774,0,64.678,0,72.311,0,84.23,2.754,97.926,6.163,105.92L51.948,213.612c.052.124.119.229.17.353l.272.669,4.069,9.59c7.37,16.725,28.848,36.956,44.892,36.956a14.948,14.948,0,0,0,11.08-4.534c1.527-1.563,21.089-21.726,22.309-23.039.525-.564,8.967-9.342,9.373-9.821L224.1,140.593l58.449-60.821c5-5.3,11.526-15.387,13-22.663,1.247-6.134,2.689-14.13,2.689-21.676,0-6.307-1.007-12.3-3.978-16.626C286.949,8.139,279.476,0,271.441,0c-3.822,0-7.771,1.842-11.892,6.13l-4.559,4.691-.339.376L187.863,80.732Z" transform="translate(201.438 333.804)" stroke="#0063b0" stroke-miterlimit="10" stroke-width="0.25" fill="url(#linear-gradient-16)"/>
            <path id="Path_39" data-name="Path 39" d="M174.716,58.7,223.2,8.221l.253-.291,3.441-3.524C229.868,1.313,232.553,0,235.076,0c6.155,0,11.348,7.819,17.478,16.75,1.986,2.9,2.682,6.923,2.682,11.289,0,7.119-1.851,15.154-2.986,20.737-1.187,5.816-7.256,14.783-11.256,19.015l-49.548,51.543-67.8,70.537c-.442.479-7.307,7.672-7.882,8.256-1.306,1.4-17.342,17.931-18.969,19.6a10.2,10.2,0,0,1-7.57,3.089c-13.527,0-33.469-20.768-39.6-34.677L46.124,177.9l-.22-.543c-.05-.083-.086-.167-.136-.25L5.95,83.449C2.994,76.5,0,62.6,0,51.533c0-5.622.772-10.517,2.712-13.412C4.628,35.245,5.17,28.4,8.018,26.571c7.758-5,13.071-12.734,17.55-12.734,2.1,0,4.012,1.7,5.91,6.165l2.966,6.964h0L31.479,20c-1.9-4.468-3.814-6.165-5.91-6.165-4.48,0-9.792,7.736-17.55,12.734C5.17,28.4,4.628,35.245,2.712,38.121.772,41.015,0,45.911,0,51.533,0,62.6,2.994,76.5,5.95,83.449L45.768,177.11c.05.083.086.167.136.25l.22.543,3.493,8.236c6.135,13.909,26.077,34.677,39.6,34.677a10.193,10.193,0,0,0,7.57-3.089c1.626-1.668,17.663-18.2,18.969-19.6.576-.584,7.441-7.777,7.882-8.256l67.8-70.537,49.548-51.543c4-4.232,10.069-13.2,11.256-19.015,1.135-5.583,2.986-13.618,2.986-20.737,0-4.367-.7-8.388-2.682-11.289C246.425,7.819,241.231,0,235.076,0c-2.523,0-5.208,1.313-8.186,4.406L223.449,7.93l-.253.291L174.716,58.7Z" transform="translate(214.585 355.836)" stroke="#0063b0" stroke-miterlimit="10" stroke-width="0.25" fill="url(#linear-gradient-17)"/>
            <path id="Path_40" data-name="Path 40" d="M161.736,38.364l30.156-31.4.2-.229L194.4,4.358c1.9-1.978,3.483-2.818,4.884-2.818,4.252,0,6.84,7.738,11.709,14.828A11.756,11.756,0,0,1,212.579,23c0,6.328-2.513,14.363-3.483,19.139-.881,4.379-6.491,12.219-9.492,15.367L158.956,99.79l-55.6,57.858c-.475.522-5.8,6.088-6.407,6.714-1.373,1.46-13.9,14.365-15.613,16.139a6.106,6.106,0,0,1-4.544,1.856c-10.749,0-29.052-21.736-33.85-32.59l-2.916-6.881-.17-.417a1.963,1.963,0,0,0-.1-.208L5.92,62.675C3.468,56.929,0,42.549,0,32.7c0-3.623.468-6.633,1.631-8.372C3.073,22.184,2.9,15.679,5.039,14.324,11.536,10.139,14.308,0,17.223,0c.918,0,1.851,1.005,2.919,3.524l1.323,3.105h0L20.142,3.524C19.075,1.005,18.141,0,17.223,0,14.308,0,11.536,10.139,5.039,14.324,2.9,15.679,3.073,22.184,1.631,24.331.468,26.072,0,29.08,0,32.7c0,9.846,3.468,24.226,5.92,29.972l33.835,79.586a1.963,1.963,0,0,1,.1.208l.17.417,2.916,6.881c4.8,10.854,23.1,32.59,33.85,32.59a6.106,6.106,0,0,0,4.544-1.856c1.712-1.773,14.24-14.679,15.613-16.139.609-.626,5.932-6.192,6.407-6.714l55.6-57.858L199.6,57.505c3-3.148,8.611-10.988,9.492-15.367.97-4.775,3.483-12.813,3.483-19.139a11.756,11.756,0,0,0-1.585-6.632c-4.869-7.09-7.459-14.828-11.709-14.828-1.4,0-2.983.84-4.884,2.818l-2.306,2.376-.2.229-30.156,31.4Z" transform="translate(227.565 376.172)" stroke="#0063b0" stroke-miterlimit="10" stroke-width="0.25" fill="url(#linear-gradient-18)"/>
            <path id="Path_41" data-name="Path 41" d="M148.959,32.524l11.849-12.344.136-.145,1.17-1.21c.968-1,1.685-1.435,2.242-1.435,2.394,0,1.791,8.019,5.3,13.112a5.327,5.327,0,0,1,.728,3.016c0,4.957-3.483,12.865-4.2,16.478-.609,2.919-5.779,9.613-7.763,11.719L126.685,94.741,83.256,139.9c-.509.582-4.255,4.5-4.915,5.17-1.442,1.565-10.442,10.843-12.273,12.72a2.88,2.88,0,0,1-2.145.88c-7.612,0-24.1-23.206-27.452-30.823l-2.338-5.5-.119-.271-.067-.147L6.078,56.417C4.262,52.154,0,37,0,29.132A7.873,7.873,0,0,1,.772,25.06c.948-1.439.067-7.612,1.492-8.529C7.06,13.478,6.461,0,7.931,0c.277,0,.624.475,1.1,1.581L8.688.789h0l.339.793C8.555.475,8.206,0,7.931,0,6.461,0,7.06,13.478,2.264,16.531c-1.425.917-.544,7.09-1.492,8.529A7.873,7.873,0,0,0,0,29.132C0,37,4.262,52.154,6.078,56.417l27.868,65.512.067.147.119.271,2.338,5.5c3.349,7.616,19.84,30.823,27.452,30.823a2.88,2.88,0,0,0,2.145-.88c1.831-1.877,10.831-11.155,12.273-12.72.66-.667,4.406-4.588,4.915-5.17l43.43-45.163,31.732-33.025c1.984-2.106,7.154-8.8,7.763-11.719.722-3.613,4.2-11.521,4.2-16.478a5.327,5.327,0,0,0-.728-3.016c-3.51-5.093-2.907-13.112-5.3-13.112-.557,0-1.274.434-2.242,1.435l-1.17,1.21-.136.145L148.959,32.524Z" transform="translate(240.342 382.013)" stroke="#0063b0" stroke-miterlimit="10" stroke-width="0.25" fill="url(#linear-gradient-19)"/>
            <path id="Path_42" data-name="Path 42" d="M140.271,31.735,133.8,38.47l.067-.083.069-.064c.275-.287.448-.417.542-.417.059,0,.084.052.084.149,0,.96-2.619,6.357-2.619,9.726a3.357,3.357,0,0,0,.467,1.906,1.324,1.324,0,0,1,.188.758c0,2.866-4.861,10.432-5.274,12.462-.287,1.439-5.017,7.026-6.017,8.089L98.486,94.724l-31.24,32.505c-.525.584-2.729,2.919-3.407,3.628-1.542,1.648-7.018,7.3-8.951,9.258a.756.756,0,0,1-.564.235c-4.035,0-18.482-25.329-20.234-29.321L32.31,106.86l-.052-.126-.034-.083L10.34,55.17C9.331,52.8,3.782,36.605,3.782,31.9a2.1,2.1,0,0,1,.2-1.084,1.075,1.075,0,0,0,.1-.549c0-1.29-.687-4.259-.687-5.68,0-.392.052-.667.185-.756.567-.365.787-1.482.787-3.01,0-5.267-2.608-15.41-2.608-16.459,0-.058.007-.089.024-.089.035,0,.106.126.222.4L0,0H0L2,4.672c-.116-.27-.186-.4-.222-.4-.017,0-.024.031-.024.089,0,1.049,2.608,11.192,2.608,16.459,0,1.528-.22,2.645-.787,3.01-.133.091-.185.363-.185.756,0,1.42.687,4.389.687,5.68a1.075,1.075,0,0,1-.1.549,2.1,2.1,0,0,0-.2,1.084c0,4.7,5.549,20.9,6.558,23.268l21.884,51.481.034.083.052.126,1.779,4.168c1.752,3.995,16.2,29.321,20.234,29.321a.756.756,0,0,0,.564-.235c1.934-1.959,7.409-7.61,8.951-9.258.678-.708,2.882-3.043,3.407-3.628l31.24-32.505L121.3,71c1-1.063,5.73-6.65,6.017-8.089.413-2.03,5.274-9.6,5.274-12.462a1.324,1.324,0,0,0-.188-.758,3.357,3.357,0,0,1-.467-1.906c0-3.369,2.619-8.766,2.619-9.726,0-.1-.027-.149-.084-.149-.094,0-.267.13-.542.417l-.069.064-.067.083,6.476-6.735Z" transform="translate(249.03 382.801)" stroke="#0063b0" stroke-miterlimit="10" stroke-width="0.25" fill="url(#linear-gradient-20)"/>
            <path id="Path_43" data-name="Path 43" d="M140.271,31.735l-61.3,63.8L59.923,115.345c-1.814,2.021-4.594,4.9-7.51,7.9L0,0H0L52.413,123.246c2.916-3,5.7-5.88,7.51-7.9L78.975,95.537l61.3-63.8Z" transform="translate(249.03 382.801)" stroke="#0063b0" stroke-miterlimit="10" stroke-width="0.25" fill="url(#linear-gradient-21)"/>
          </g>
          <rect id="Rectangle_9" data-name="Rectangle 9" width="953.162" height="878.835" transform="translate(0 0)" fill="none" stroke="#0063b0" stroke-miterlimit="10" stroke-width="0.25"/>
        </g>
      </g>
      <path id="Path_8545" data-name="Path 8545" d="M0,0H953.156V878.835H0Z" transform="translate(0)" fill="none"/>
    </g>
    <g id="Group_13" data-name="Group 13" transform="translate(123.658 -828.859) rotate(21)" opacity="0.1">
      <g id="Group_12-2" data-name="Group 12" transform="translate(13.708 224.876)" clip-path="url(#clip-path-6)">
        <g id="Group_11-2" data-name="Group 11" transform="translate(-0.003)">
          <g id="Group_10-2" data-name="Group 10" clip-path="url(#clip-path-7)">
            <path id="Path_22-2" data-name="Path 22" d="M262.672,607.563l-29.394-69.139C212.5,489.565,172,461.61,130.069,461.61c-18.171,0-36.61,5.252-53.825,16.327a124.71,124.71,0,0,0-35.886,35.78c-17.2,25.7-26.554,58.05-26.554,91.131a169.463,169.463,0,0,0,13.282,66.224l135.422,318.49c.2.479.458.9.661,1.377l1.12,2.667,12.678,29.984c22.776,51.638,65.641,79.807,109.219,79.807,27.548,0,55.379-11.256,78.6-34.96l72.4-74.685L923.852,487.527c19.951-21.121,33.241-48.184,39.156-77.29a181.548,181.548,0,0,0,3.615-36.11c0-34.047-9.505-68.2-28.771-96.25-23.986-34.927-58.145-52.9-92.544-52.9-27.593,0-55.342,11.566-78.119,35.22l-21.34,22.122-1.356,1.439L402.943,639.3h0L744.492,283.757l1.356-1.439,21.34-22.122c22.777-23.654,50.526-35.22,78.119-35.22,34.4,0,68.559,17.974,92.544,52.9,19.266,28.05,28.771,62.2,28.771,96.25a181.533,181.533,0,0,1-3.615,36.11c-5.917,29.109-19.207,56.172-39.156,77.29L437.185,993.753l-72.4,74.685c-23.224,23.7-51.055,34.96-78.6,34.96-43.577,0-86.443-28.171-109.219-79.807l-12.678-29.984-1.12-2.667c-.2-.481-.46-.9-.661-1.377L27.086,671.073A169.463,169.463,0,0,1,13.8,604.848c0-33.081,9.356-65.435,26.554-91.131a124.752,124.752,0,0,1,35.886-35.78c17.215-11.074,35.653-16.327,53.825-16.327,41.927,0,82.431,27.955,103.21,76.813l29.394,69.139Z" transform="translate(-13.639 -224.77)" stroke="#0063b0" stroke-miterlimit="10" stroke-width="0.25" fill="url(#linear-gradient)"/>
            <path id="Path_23-2" data-name="Path 23" d="M397.5,627.816l323.241-336.5,1.287-1.334L742.23,269c21.527-22.353,47.614-33.234,73.569-33.234,32.68,0,65.151,17.254,88.044,50.581,18.2,26.512,27.052,58.944,27.052,91.218a175.206,175.206,0,0,1-3.491,34.865c-5.626,27.647-18.459,53.605-37.41,73.663L706.8,676.648,456.2,937.319c-.035.041-30.242,31.483-30.292,31.506-.069.083-68.941,71.14-69.042,71.225-21.8,22.26-47.953,32.767-73.925,32.767-41.9,0-83.306-27.342-105.113-76.783l-12.1-28.628-1.066-2.523c-.206-.438-.426-.855-.613-1.292L34.572,659.155a163.378,163.378,0,0,1-12.743-63.771c0-31.491,8.755-62.328,25-86.6C55.946,495.166,67.286,483.22,80.8,474.5c16.6-10.672,34.349-15.759,51.8-15.759,39.408,0,77.275,25.948,96.883,72.077l27.749,65.26h0l-27.749-65.26c-19.61-46.129-57.477-72.077-96.883-72.077-17.446,0-35.195,5.087-51.8,15.759-13.51,8.717-24.85,20.662-33.97,34.279-16.245,24.274-25,55.11-25,86.6a163.378,163.378,0,0,0,12.743,63.771L164.044,963.591c.186.438.406.855.613,1.292l1.066,2.523,12.1,28.628c21.809,49.441,63.216,76.783,105.113,76.783,25.971,0,52.129-10.507,73.925-32.767.1-.085,68.973-71.142,69.042-71.225.05-.023,30.257-31.465,30.292-31.506L706.8,676.648,889.993,486.1c18.952-20.058,31.784-46.016,37.41-73.663a175.206,175.206,0,0,0,3.491-34.865c0-32.274-8.854-64.707-27.052-91.218-22.893-33.329-55.364-50.581-88.044-50.581-25.955,0-52.042,10.88-73.569,33.234l-20.206,20.976-1.287,1.334L397.5,627.816Z" transform="translate(-8.194 -213.28)" stroke="#0063b0" stroke-miterlimit="10" stroke-width="0.25" fill="url(#linear-gradient-2)"/>
            <path id="Path_24-2" data-name="Path 24" d="M392.048,616.321,696.965,298.894l1.22-1.27,19.1-19.81c20.266-21.044,44.7-31.248,69.02-31.248,30.955,0,61.73,16.527,83.506,48.262C886.965,319.8,895.171,350.505,895.171,381a169.029,169.029,0,0,1-3.37,33.639c-5.339,26.187-17.713,51-35.682,70.035L681.845,665.945,443.427,913.917c-.05.084-28.716,29.9-28.783,29.984-.17.167-65.517,67.577-65.72,67.785-20.369,20.8-44.851,30.548-69.24,30.546-40.215,0-80.17-26.509-101-73.727l-11.526-27.273-1.017-2.4c-.186-.438-.406-.813-.593-1.231L42.075,647.2a157.388,157.388,0,0,1-12.218-61.362c0-29.871,8.142-59.149,23.422-81.985,8.646-12.926,19.257-24.5,32.073-32.755,16-10.288,33.065-15.218,49.793-15.218,36.875,0,72.1,23.962,90.545,67.323l26.087,61.383h0L225.69,523.2c-18.448-43.361-53.67-67.323-90.545-67.323-16.728,0-33.8,4.93-49.793,15.218-12.815,8.256-23.427,19.828-32.073,32.755C38,526.69,29.857,555.968,29.857,585.839A157.388,157.388,0,0,0,42.075,647.2L165.547,937.6c.186.417.406.793.593,1.231l1.017,2.4L178.683,968.5c20.83,47.217,60.787,73.729,101,73.727,24.389,0,48.871-9.749,69.24-30.546.2-.208,65.551-67.618,65.72-67.785.067-.085,28.733-29.9,28.783-29.984L681.845,665.945,856.119,484.671c17.969-19.036,30.342-43.848,35.682-70.035A169.029,169.029,0,0,0,895.171,381c0-30.492-8.206-61.2-25.355-86.168-21.775-31.735-52.551-48.262-83.506-48.262-24.323,0-48.756,10.2-69.02,31.248l-19.1,19.81-1.22,1.27L392.048,616.321Z" transform="translate(-2.747 -201.784)" stroke="#0063b0" stroke-miterlimit="10" stroke-width="0.25" fill="url(#linear-gradient-3)"/>
            <path id="Path_25-2" data-name="Path 25" d="M386.6,604.833l286.61-298.368,1.153-1.189,17.968-18.66c19.011-19.74,41.781-29.257,64.463-29.257,29.238,0,58.325,15.819,79.01,45.958,16.083,23.4,23.645,52.356,23.645,81.071a163.222,163.222,0,0,1-3.253,32.46c-5.034,24.728-16.968,48.436-33.936,66.367L656.9,655.248,430.674,890.565c-.084.085-27.19,28.293-27.308,28.4-.238.25-62.059,64.052-62.363,64.343-18.955,19.345-41.771,28.355-64.581,28.355-38.527,0-77.033-25.7-96.88-70.7l-10.951-25.917-.965-2.25c-.17-.417-.374-.772-.561-1.169L49.561,635.3a151.617,151.617,0,0,1-11.677-58.961c0-28.271,7.542-56,21.866-77.4,8.171-12.2,18.069-23.456,30.156-31.233,15.4-9.9,31.788-14.679,47.8-14.679,34.337,0,66.924,21.984,84.182,62.595L246.331,573.1h0l-24.444-57.483C204.628,475,172.04,453.02,137.7,453.02c-16.011,0-32.4,4.78-47.8,14.679-12.087,7.777-21.985,19.038-30.156,31.233-14.324,21.4-21.866,49.131-21.866,77.4A151.647,151.647,0,0,0,49.561,635.3L167.067,911.624c.186.4.391.752.561,1.169l.965,2.25,10.951,25.917c19.848,45,58.353,70.7,96.88,70.7,22.809,0,45.625-9.01,64.581-28.355.3-.291,62.125-64.093,62.363-64.343.118-.105,27.224-28.314,27.308-28.4L656.9,655.248,822.262,483.213c16.968-17.931,28.9-41.639,33.936-66.367a163.238,163.238,0,0,0,3.253-32.46c0-28.714-7.562-57.666-23.645-81.071-20.686-30.139-49.773-45.958-79.01-45.958-22.682,0-45.454,9.52-64.463,29.257l-17.968,18.66-1.153,1.189L386.6,604.833Z" transform="translate(2.699 -190.296)" stroke="#0063b0" stroke-miterlimit="10" stroke-width="0.25" fill="url(#linear-gradient-4)"/>
            <path id="Path_26-2" data-name="Path 26" d="M381.157,593.337,649.443,314.048l1.084-1.127,16.851-17.493c17.755-18.431,38.881-27.271,59.933-27.271,27.509,0,54.894,15.1,74.472,43.619,15.023,21.862,21.941,49.08,21.941,76.023A157.6,157.6,0,0,1,820.6,419.05c-4.745,23.289-16.221,45.849-32.19,62.719L631.949,644.525,417.908,867.186c-.119.124-25.664,26.687-25.8,26.854-.339.334-58.633,60.466-59.041,60.9-17.535,17.9-38.678,26.169-59.9,26.169-36.831,0-73.9-24.922-92.764-67.7l-10.392-24.54-.9-2.147c-.17-.376-.356-.71-.525-1.086L57.068,623.34a145.511,145.511,0,0,1-11.16-56.554c0-26.652,6.949-52.821,20.313-72.8,7.679-11.467,16.867-22.393,28.241-29.712,14.791-9.518,30.5-14.153,45.785-14.153,31.791,0,61.757,20.043,77.841,57.877l22.8,53.605h0L218.087,508C202,470.163,172.038,450.12,140.247,450.12c-15.286,0-31,4.635-45.785,14.153-11.374,7.319-20.562,18.245-28.241,29.712-13.364,19.981-20.313,46.15-20.313,72.8a145.511,145.511,0,0,0,11.16,56.554l111.522,262.3c.17.376.356.71.525,1.086l.9,2.147L180.4,913.41c18.865,42.783,55.933,67.7,92.764,67.7,21.221,0,42.362-8.273,59.9-26.169.408-.438,58.7-60.569,59.041-60.9.136-.167,25.681-26.731,25.8-26.854L631.949,644.525,788.408,481.768c15.969-16.87,27.445-39.43,32.19-62.719a157.6,157.6,0,0,0,3.125-31.252c0-26.943-6.919-54.161-21.941-76.023-19.578-28.523-46.963-43.619-74.472-43.619-21.052,0-42.177,8.841-59.933,27.271l-16.851,17.493-1.084,1.127L381.157,593.337Z" transform="translate(8.144 -178.801)" stroke="#0063b0" stroke-miterlimit="10" stroke-width="0.25" fill="url(#linear-gradient-5)"/>
            <path id="Path_27-2" data-name="Path 27" d="M375.717,581.855,625.7,321.643l1-1.063,15.731-16.325c16.5-17.14,35.982-25.314,55.407-25.314,25.782,0,51.465,14.394,69.947,41.327,13.952,20.289,20.233,45.737,20.233,70.89A151.931,151.931,0,0,1,785,421.266a124.3,124.3,0,0,1-30.443,59.089L607,633.836,405.145,843.8c-.136.147-24.139,25.147-24.308,25.312-.408.438-55.193,56.944-55.684,57.464-16.132,16.457-35.613,24.007-55.251,24.007-35.128,0-70.762-24.158-88.647-64.707l-9.8-23.185-.848-2c-.151-.374-.339-.667-.473-1.043L64.578,611.443a139.756,139.756,0,0,1-10.652-54.225c0-25.031,6.362-49.612,18.772-68.146,7.187-10.759,15.645-21.352,26.326-28.211,14.2-9.132,29.236-13.626,43.8-13.626,29.233,0,56.572,18.1,71.484,53.157l21.137,49.728h0l-21.137-49.728c-14.912-35.055-42.253-53.157-71.484-53.157-14.564,0-29.6,4.495-43.8,13.626-10.68,6.859-19.138,17.452-26.326,28.211-12.411,18.534-18.772,43.115-18.772,68.146a139.748,139.748,0,0,0,10.652,54.225l105.556,248.2c.134.376.322.669.473,1.043l.848,2,9.8,23.185c17.884,40.549,53.519,64.707,88.647,64.707,19.639,0,39.119-7.55,55.251-24.007.492-.52,55.276-57.026,55.684-57.464.17-.165,24.172-25.165,24.308-25.312L607,633.836l147.561-153.48A124.3,124.3,0,0,0,785,421.266a151.947,151.947,0,0,0,3.011-30.108c0-25.153-6.283-50.6-20.233-70.89-18.482-26.933-44.165-41.327-69.947-41.327-19.425,0-38.908,8.174-55.407,25.314L626.7,320.58l-1,1.063L375.717,581.855Z" transform="translate(13.584 -167.319)" stroke="#0063b0" stroke-miterlimit="10" stroke-width="0.25" fill="url(#linear-gradient-6)"/>
            <path id="Path_28-2" data-name="Path 28" d="M370.276,570.365,601.929,329.232l.95-1,14.611-15.179c15.242-15.821,33.08-23.318,50.877-23.318,24.048,0,48.019,13.688,65.408,39.017,12.862,18.724,18.524,42.364,18.524,65.708a146.3,146.3,0,0,1-2.912,29.016,117.052,117.052,0,0,1-28.681,55.441L582.062,623.138,392.4,820.423c-.186.188-22.613,23.541-22.833,23.77-.475.5-51.735,53.376-52.346,54.022-14.721,15.02-32.531,21.858-50.578,21.858-33.407,0-67.619-23.425-84.523-61.723L172.9,836.5l-.781-1.856c-.153-.353-.322-.626-.458-.958L72.071,599.492a134.051,134.051,0,0,1-10.125-51.865c0-23.4,5.771-46.379,17.21-63.478,6.731-10.05,14.46-20.266,24.427-26.689,13.626-8.768,28-13.143,41.848-13.143,26.656,0,51.371,16.205,65.079,48.464L230,538.63h0L210.51,492.781c-13.71-32.259-38.423-48.464-65.079-48.464-13.849,0-28.222,4.375-41.848,13.143-9.967,6.423-17.7,16.639-24.427,26.689-11.441,17.1-17.21,40.082-17.21,63.478a134.051,134.051,0,0,0,10.125,51.865l99.587,234.192c.136.332.305.605.458.958l.781,1.856,9.22,21.852c16.9,38.3,51.117,61.723,84.523,61.723,18.047,0,35.858-6.838,50.578-21.858.611-.646,51.871-53.523,52.346-54.022.22-.229,22.646-23.582,22.833-23.77L582.062,623.138,720.707,478.915a117.052,117.052,0,0,0,28.681-55.441,146.335,146.335,0,0,0,2.912-29.016c0-23.345-5.662-46.984-18.524-65.708-17.389-25.328-41.362-39.017-65.408-39.017-17.8,0-35.636,7.5-50.877,23.318l-14.611,15.179-.95,1L370.276,570.365Z" transform="translate(19.025 -155.829)" stroke="#0063b0" stroke-miterlimit="10" stroke-width="0.25" fill="url(#linear-gradient-7)"/>
            <g id="Group_9-2" data-name="Group 9" transform="translate(94.424 156.167)" opacity="0.15">
              <g id="Group_8-2" data-name="Group 8">
                <g id="Group_7-2" data-name="Group 7" clip-path="url(#clip-path-8)">
                  <g id="Group_6-2" data-name="Group 6" transform="translate(0.008 0.001)">
                    <g id="Group_5-2" data-name="Group 5" clip-path="url(#clip-path-9)">
                      <path id="Path_8544-2" data-name="Path 8544" d="M89.158,92,983.068,0,893.91,907.148,0,999.146Z" transform="matrix(0.782, -0.623, 0.623, 0.782, -373.306, 220.189)" stroke="#0063b0" stroke-width="0.25" fill="url(#linear-gradient-8)"/>
                    </g>
                    <path id="Path_30-2" data-name="Path 30" d="M638.528,300.517c-16.052.112-32.115,6.947-45.989,21.35L579.045,335.88l-.881.919-213.329,222.1L224.563,527.14,206.729,485.19c-19.357-45.516-61.564-54.941-98.587-31.13-9.255,5.942-16.273,15.846-22.51,25.167-18.73,28-20.562,74.227-6.053,108.359L173.184,807.7c.117.314.289.586.423.877l.73,1.751L183,830.8c24.155,54.774,87.316,78.814,126.287,39.052.71-.749,48.447-50,49.021-50.583.255-.27,21.122-22,21.325-22.226L557.11,612.439,686.855,477.474a110.051,110.051,0,0,0,26.935-51.793c5.95-29.231,2.966-63.718-14.019-88.447-16.194-23.6-38.292-36.574-60.486-36.717Z" transform="translate(-69.965 -300.517)" fill="none" stroke="#0063b0" stroke-miterlimit="10" stroke-width="0.25"/>
                  </g>
                </g>
                <rect id="Rectangle_7-2" data-name="Rectangle 7" width="646.644" height="589.072" fill="none" stroke="#0063b0" stroke-miterlimit="10" stroke-width="0.25"/>
              </g>
            </g>
            <path id="Path_31-2" data-name="Path 31" d="M359.4,547.4l195.005-203,.814-.855,12.391-12.867c12.725-13.213,27.309-19.376,41.872-19.376,20.575,0,41.107,12.3,56.292,34.411,10.7,15.573,15.137,35.579,15.137,55.294a135.829,135.829,0,0,1-2.711,26.9c-3.543,17.431-13.238,35.486-25.206,48.142L532.167,601.737,366.876,773.689c-.22.229-19.544,20.351-19.832,20.663-.645.688-44.853,46.288-45.667,47.122-11.949,12.194-26.462,17.65-41.335,17.65-29.914,0-61.282-22.083-76.171-55.87l-8.085-19.118-.678-1.606c-.119-.25-.272-.52-.406-.813L87.1,575.652c-6.034-14.177-9.126-30.89-9.126-47.337,0-20.1,4.618-39.808,14.126-54.016,5.764-8.612,12.07-18.16,20.614-23.665,12.5-8.033,25.538-12.2,37.927-12.2,21.47,0,40.981,12.524,52.321,39.163l16.171,38.071h0L202.96,477.594c-11.34-26.642-30.851-39.163-52.321-39.163-12.389,0-25.429,4.171-37.927,12.2-8.544,5.5-14.85,15.053-20.614,23.665-9.509,14.209-14.126,33.915-14.126,54.016,0,16.447,3.092,33.16,9.126,47.337l87.6,206.064c.134.293.287.564.406.813l.678,1.606,8.085,19.118c14.888,33.787,46.256,55.87,76.171,55.87,14.873,0,29.386-5.459,41.335-17.65.814-.834,45.022-46.435,45.667-47.122.287-.312,19.612-20.433,19.832-20.663L532.167,601.737,653,476.05c11.968-12.656,21.663-30.711,25.206-48.142a135.844,135.844,0,0,0,2.711-26.9c0-19.715-4.441-39.721-15.137-55.294-15.185-22.108-35.717-34.411-56.292-34.411-14.563,0-29.147,6.163-41.872,19.376l-12.391,12.867-.814.855L359.4,547.4Z" transform="translate(29.899 -132.864)" stroke="#0063b0" stroke-miterlimit="10" stroke-width="0.25" fill="url(#linear-gradient-9)"/>
            <path id="Path_32-2" data-name="Path 32" d="M353.971,535.927l176.7-183.942.747-.772,11.256-11.7c11.484-11.923,24.468-17.436,37.431-17.436,18.819,0,37.592,11.619,51.664,32.113,9.608,13.994,13.468,32.14,13.468,50.032a131.057,131.057,0,0,1-2.62,25.907c-3.255,15.993-12.476,32.9-23.461,44.515L507.244,591.077,354.124,750.312c-.238.291-18.019,18.786-18.341,19.118-.73.772-41.412,42.764-42.327,43.7a50.3,50.3,0,0,1-36.734,15.586c-28.13,0-58.093-21.493-71.991-52.992l-7.493-17.743-.628-1.48c-.118-.25-.253-.479-.356-.731L94.6,563.762c-5.662-13.313-8.626-29.363-8.626-45.114,0-18.439,4.062-36.471,12.609-49.234,5.289-7.9,10.867-17.138,18.7-22.163,11.963-7.695,24.343-11.81,35.994-11.81,18.841,0,35.767,10.767,45.9,34.578L213.7,504.192h0l-14.527-34.173c-10.13-23.811-27.056-34.578-45.9-34.578-11.651,0-24.031,4.115-35.994,11.81-7.83,5.025-13.408,14.262-18.7,22.163-8.549,12.763-12.609,30.8-12.609,49.234,0,15.751,2.964,31.8,8.626,45.114l81.653,192.01c.1.252.238.481.356.731l.628,1.48,7.493,17.743c13.9,31.5,43.861,52.992,71.991,52.992a50.3,50.3,0,0,0,36.734-15.586c.915-.94,41.6-42.931,42.327-43.7.322-.333,18.1-18.827,18.341-19.118l153.12-159.234L619.155,474.648c10.984-11.613,20.206-28.522,23.461-44.515a131.057,131.057,0,0,0,2.62-25.907c0-17.892-3.861-36.038-13.468-50.032C617.694,333.7,598.92,322.082,580.1,322.082c-12.963,0-25.946,5.512-37.431,17.436l-11.256,11.7-.747.772-176.7,183.942Z" transform="translate(35.33 -121.391)" stroke="#0063b0" stroke-miterlimit="10" stroke-width="0.25" fill="url(#linear-gradient-10)"/>
            <path id="Path_33-2" data-name="Path 33" d="M348.542,524.458,506.916,359.575l.678-.69,10.137-10.53c10.239-10.633,21.636-15.5,33.008-15.5,17.06,0,34.069,10.957,47.037,29.846,8.508,12.379,11.8,28.617,11.8,44.651a126.6,126.6,0,0,1-2.545,24.99c-2.966,14.553-11.748,30.317-21.715,40.887L482.3,580.38,341.389,726.957c-.289.335-16.51,17.182-16.866,17.576-.8.857-37.971,39.2-38.988,40.221a43.956,43.956,0,0,1-32.2,13.581c-26.3,0-54.86-20.958-67.728-50.13l-6.934-16.389-.559-1.334c-.1-.229-.22-.458-.322-.667L102.106,551.835c-5.284-12.435-8.129-27.86-8.129-42.937,0-16.752,3.513-33.079,11.1-44.405,4.8-7.193,9.661-16.054,16.763-20.619,11.446-7.367,23.168-11.469,34.062-11.469,16.211,0,30.589,9.086,39.49,30.026l12.883,30.294h0l-12.883-30.294c-8.9-20.939-23.279-30.026-39.49-30.026-10.893,0-22.616,4.1-34.062,11.469-7.1,4.565-11.966,13.426-16.763,20.619-7.583,11.326-11.1,27.653-11.1,44.405,0,15.078,2.847,30.5,8.129,42.938l75.687,177.979c.1.208.22.438.322.667l.559,1.334,6.934,16.389c12.867,29.173,41.426,50.13,67.728,50.13a43.956,43.956,0,0,0,32.2-13.581c1.017-1.02,38.191-39.364,38.988-40.221.356-.394,16.577-17.241,16.866-17.576L482.3,580.38,585.316,473.229c9.967-10.571,18.749-26.334,21.715-40.887a126.6,126.6,0,0,0,2.545-24.99c0-16.034-3.293-32.272-11.8-44.651-12.968-18.889-29.976-29.846-47.037-29.846-11.372,0-22.769,4.868-33.008,15.5l-10.137,10.53-.678.69L348.542,524.458Z" transform="translate(40.759 -109.922)" stroke="#0063b0" stroke-miterlimit="10" stroke-width="0.25" fill="url(#linear-gradient-11)"/>
            <path id="Path_34-2" data-name="Path 34" d="M343.125,513,483.192,367.189l.609-.625,9.018-9.384c8.985-9.332,18.8-13.558,28.6-13.558,15.3,0,30.524,10.317,42.377,27.591,7.392,10.769,10.14,25.056,10.14,39.211a123.211,123.211,0,0,1-2.477,24.154c-2.662,13.094-11,27.73-19.969,37.239l-94.112,97.891L328.647,703.61c-.3.332-14.967,15.617-15.357,16.013-.881.958-34.547,35.654-35.648,36.8a37.763,37.763,0,0,1-27.72,11.607c-24.439,0-51.6-20.516-63.426-47.323l-6.358-15.055-.509-1.187c-.084-.208-.2-.4-.287-.626l-69.7-163.884c-4.926-11.587-7.677-26.462-7.677-40.9,0-15.028,2.979-29.584,9.593-39.473,4.322-6.444,8.476-14.973,14.883-19.12,10.925-7.026,21.953-11.172,32.048-11.172,13.571,0,25.458,7.492,33.145,25.558l11.222,26.417h0l-11.222-26.417c-7.689-18.065-19.575-25.558-33.145-25.558-10.094,0-21.122,4.146-32.048,11.172-6.407,4.148-10.561,12.677-14.883,19.12-6.613,9.889-9.593,24.445-9.593,39.473,0,14.442,2.753,29.317,7.677,40.9l69.7,163.884c.084.229.2.417.287.626l.509,1.187,6.358,15.055c11.825,26.807,38.987,47.323,63.426,47.323a37.763,37.763,0,0,0,27.72-11.607c1.1-1.146,34.767-35.841,35.648-36.8.389-.4,15.053-15.681,15.357-16.013l128.728-133.9,94.112-97.891c8.968-9.509,17.307-24.145,19.969-37.239a123.211,123.211,0,0,0,2.477-24.154c0-14.155-2.749-28.442-10.14-39.211-11.854-17.275-27.081-27.591-42.377-27.591-9.792,0-19.612,4.226-28.6,13.558l-9.018,9.384-.609.625L343.125,513Z" transform="translate(46.176 -98.46)" stroke="#0063b0" stroke-miterlimit="10" stroke-width="0.25" fill="url(#linear-gradient-12)"/>
            <path id="Path_35-2" data-name="Path 35" d="M337.711,501.545,459.454,374.8l.542-.543,7.9-8.215c7.758-8.056,16.042-11.661,24.281-11.661,13.51,0,26.9,9.693,37.64,25.339,6.269,9.148,8.512,21.408,8.512,33.637a119.614,119.614,0,0,1-2.459,23.473c-2.357,11.634-10.239,25.165-18.224,33.589L432.467,559.05l-116.555,121.2c-.339.4-13.426,14.033-13.866,14.492-.967,1.022-31.089,32.109-32.31,33.339a31.688,31.688,0,0,1-23.324,9.706c-22.5,0-48.264-20.19-59.025-44.608l-5.779-13.657-.458-1.084a3.663,3.663,0,0,1-.255-.543L117.175,528.046c-4.557-10.711-7.234-25.1-7.234-38.914,0-13.265,2.469-26,8.117-34.438,3.847-5.736,7.271-13.928,12.966-17.6,10.432-6.706,20.74-11.011,29.992-11.011,10.939,0,20.4,6.016,26.846,21.185l9.578,22.539h0l-9.578-22.539c-6.445-15.169-15.909-21.185-26.846-21.185-9.252,0-19.56,4.3-29.992,11.011-5.7,3.671-9.119,11.863-12.966,17.6-5.648,8.436-8.117,21.172-8.117,34.438,0,13.814,2.679,28.2,7.234,38.914L180.895,677.9a3.663,3.663,0,0,0,.255.543l.458,1.084,5.779,13.657c10.761,24.418,36.521,44.608,59.025,44.608a31.685,31.685,0,0,0,23.324-9.706c1.22-1.23,31.343-32.317,32.31-33.339.44-.458,13.527-14.1,13.866-14.492l116.555-121.2,85.179-88.635c7.985-8.424,15.867-21.955,18.224-33.589a119.614,119.614,0,0,0,2.459-23.473c0-12.229-2.244-24.488-8.512-33.637-10.741-15.645-24.13-25.339-37.64-25.339-8.24,0-16.525,3.6-24.281,11.661l-7.9,8.215-.542.543L337.711,501.545Z" transform="translate(51.59 -87.009)" stroke="#0063b0" stroke-miterlimit="10" stroke-width="0.25" fill="url(#linear-gradient-13)"/>
            <path id="Path_36-2" data-name="Path 36" d="M332.315,490.1,435.751,382.429l.457-.479,6.8-7.049c6.521-6.78,13.294-9.774,20-9.774,11.711,0,23.222,9.119,32.835,23.119,5.16,7.509,6.942,17.7,6.942,27.986a117.081,117.081,0,0,1-2.466,22.847c-2.068,10.2-9.494,22.56-16.476,29.941l-76.281,79.357L303.21,656.924c-.373.417-11.917,12.448-12.374,12.927-1.051,1.127-27.665,28.566-28.988,29.92a25.8,25.8,0,0,1-19.038,7.864c-20.484,0-44.845-19.991-54.513-41.934l-5.2-12.321-.408-.937c-.067-.167-.153-.314-.22-.46l-57.752-135.8c-4.183-9.842-6.821-23.842-6.821-37.041,0-11.463,1.991-22.318,6.685-29.326,3.357-5.025,6.069-12.885,11.036-16.075,9.932-6.388,19.42-11.013,27.732-11.013,8.372,0,15.55,4.693,20.782,17l7.916,18.639h0l-7.916-18.639c-5.232-12.3-12.409-17-20.782-17-8.312,0-17.8,4.625-27.732,11.013-4.967,3.19-7.679,11.05-11.036,16.075-4.7,7.007-6.685,17.863-6.685,29.326,0,13.2,2.639,27.2,6.821,37.041l57.752,135.8c.067.147.153.293.22.46l.408.937,5.2,12.321c9.67,21.943,34.028,41.934,54.513,41.934a25.8,25.8,0,0,0,19.038-7.864c1.323-1.354,27.937-28.793,28.988-29.92.457-.479,12-12.509,12.374-12.927L407.561,548.378l76.281-79.357c6.983-7.381,14.408-19.746,16.476-29.941a116.952,116.952,0,0,0,2.466-22.847c0-10.284-1.783-20.477-6.942-27.986-9.613-14-21.124-23.119-32.835-23.119-6.707,0-13.482,2.994-20,9.774l-6.8,7.049-.457.479L332.315,490.1Z" transform="translate(56.986 -75.564)" stroke="#0063b0" stroke-miterlimit="10" stroke-width="0.25" fill="url(#linear-gradient-14)"/>
            <path id="Path_37-2" data-name="Path 37" d="M326.933,478.677l85.112-88.615.406-.438,5.662-5.857c5.312-5.51,10.637-7.909,15.865-7.909,9.888,0,19.437,8.585,27.92,20.939,4.049,5.884,5.418,13.959,5.418,22.254a115.069,115.069,0,0,1-2.536,22.3c-1.781,8.735-8.747,19.975-14.731,26.313l-67.365,70.077L290.5,633.638c-.389.415-10.373,10.821-10.882,11.361-1.12,1.189-24.224,25.021-25.631,26.46a20.214,20.214,0,0,1-14.949,6.14c-18.346,0-41.271-19.987-49.821-39.376l-4.628-10.967-.339-.793c-.067-.144-.136-.27-.2-.417L132.284,504.3c-3.8-8.942-6.459-22.7-6.459-35.292,0-9.576,1.536-18.472,5.272-24.048,2.88-4.294,4.864-11.843,9.136-14.553,9.368-6.035,17.849-11.229,25.072-11.229,5.952,0,11.05,3.528,15.085,13.021l6.273,14.741h0L180.39,432.2c-4.035-9.5-9.133-13.021-15.085-13.021-7.223,0-15.7,5.195-25.072,11.229-4.272,2.711-6.256,10.259-9.136,14.553-3.736,5.576-5.272,14.473-5.272,24.048,0,12.588,2.655,26.35,6.459,35.292l51.768,121.743c.067.147.136.273.2.417l.339.793,4.628,10.967c8.55,19.389,31.475,39.376,49.821,39.376a20.214,20.214,0,0,0,14.949-6.14C255.4,670.02,278.5,646.189,279.623,645c.509-.541,10.492-10.946,10.882-11.361l92.18-95.892,67.365-70.077c5.984-6.338,12.95-17.578,14.731-26.313a115.069,115.069,0,0,0,2.536-22.3c0-8.3-1.37-16.37-5.418-22.254-8.483-12.355-18.032-20.939-27.92-20.939-5.229,0-10.553,2.4-15.865,7.909l-5.662,5.857-.406.438-85.112,88.615Z" transform="translate(62.368 -64.141)" stroke="#0063b0" stroke-miterlimit="10" stroke-width="0.25" fill="url(#linear-gradient-15)"/>
            <path id="Path_38-2" data-name="Path 38" d="M321.579,467.288l66.788-69.536.339-.376,4.559-4.691c4.121-4.288,8.07-6.13,11.892-6.13,8.035,0,15.508,8.139,22.824,18.807,2.971,4.327,3.978,10.319,3.978,16.626,0,7.546-1.444,15.542-2.689,21.676-1.475,7.276-8,17.367-13,22.663L357.82,527.149l-79.992,83.193c-.406.479-8.847,9.258-9.373,9.821-1.22,1.313-20.782,21.476-22.309,23.039a14.948,14.948,0,0,1-11.08,4.534c-16.043,0-37.521-20.231-44.892-36.956l-4.069-9.59-.272-.669c-.05-.124-.117-.229-.17-.353L139.879,492.476c-3.409-7.994-6.163-21.691-6.163-33.61,0-7.633,1.13-14.537,3.943-18.747,2.407-3.586,3.662-10.738,7.221-13.052,8.683-5.568,15.84-11.739,21.79-11.739,3.809,0,7.124,2.529,10.027,9.363l4.611,10.862h0L176.7,424.691c-2.9-6.836-6.219-9.363-10.027-9.363-5.95,0-13.107,6.171-21.79,11.739-3.558,2.314-4.814,9.466-7.221,13.052-2.813,4.21-3.943,11.114-3.943,18.747,0,11.919,2.754,25.616,6.163,33.61l45.785,107.692c.052.124.119.229.17.353l.272.669,4.069,9.59c7.37,16.725,28.848,36.956,44.892,36.956a14.948,14.948,0,0,0,11.08-4.534c1.527-1.563,21.089-21.726,22.309-23.039.525-.564,8.967-9.342,9.373-9.821l79.992-83.193,58.449-60.821c5-5.3,11.526-15.387,13-22.663,1.247-6.134,2.689-14.13,2.689-21.676,0-6.307-1.007-12.3-3.978-16.626-7.317-10.668-14.789-18.807-22.824-18.807-3.822,0-7.771,1.842-11.892,6.13l-4.559,4.691-.339.376-66.788,69.536Z" transform="translate(67.722 -52.752)" stroke="#0063b0" stroke-miterlimit="10" stroke-width="0.25" fill="url(#linear-gradient-16)"/>
            <path id="Path_39-2" data-name="Path 39" d="M316.265,455.928l48.48-50.479.253-.291,3.441-3.524c2.978-3.093,5.663-4.406,8.186-4.406,6.155,0,11.348,7.819,17.478,16.75,1.986,2.9,2.682,6.923,2.682,11.289,0,7.119-1.851,15.154-2.986,20.737-1.187,5.816-7.256,14.783-11.256,19.015L333,516.561l-67.8,70.537c-.442.479-7.307,7.672-7.882,8.256-1.306,1.4-17.342,17.931-18.969,19.6a10.2,10.2,0,0,1-7.57,3.089c-13.527,0-33.469-20.768-39.6-34.677l-3.493-8.236-.22-.543c-.05-.083-.086-.167-.136-.25L147.5,480.676c-2.956-6.953-5.95-20.844-5.95-31.917,0-5.622.772-10.517,2.712-13.412,1.915-2.876,2.457-9.716,5.306-11.549,7.758-5,13.071-12.734,17.55-12.734,2.1,0,4.012,1.7,5.91,6.165l2.966,6.964h0l-2.966-6.964c-1.9-4.468-3.814-6.165-5.91-6.165-4.48,0-9.792,7.736-17.55,12.734-2.848,1.833-3.391,8.674-5.306,11.549-1.94,2.895-2.712,7.79-2.712,13.412,0,11.072,2.994,24.963,5.95,31.917l39.817,93.661c.05.083.086.167.136.25l.22.543,3.493,8.236c6.135,13.909,26.077,34.677,39.6,34.677a10.193,10.193,0,0,0,7.57-3.089c1.626-1.668,17.663-18.2,18.969-19.6.576-.584,7.441-7.777,7.882-8.256L333,516.561l49.548-51.543c4-4.232,10.069-13.2,11.256-19.015,1.135-5.583,2.986-13.618,2.986-20.737,0-4.367-.7-8.388-2.682-11.289-6.13-8.931-11.323-16.75-17.478-16.75-2.523,0-5.208,1.313-8.186,4.406L365,405.157l-.253.291-48.48,50.479Z" transform="translate(73.036 -41.392)" stroke="#0063b0" stroke-miterlimit="10" stroke-width="0.25" fill="url(#linear-gradient-17)"/>
            <path id="Path_40-2" data-name="Path 40" d="M311.018,445.441l30.156-31.4.2-.229,2.306-2.376c1.9-1.978,3.483-2.818,4.884-2.818,4.252,0,6.84,7.738,11.709,14.828a11.756,11.756,0,0,1,1.585,6.632c0,6.328-2.513,14.363-3.483,19.139-.881,4.379-6.491,12.219-9.492,15.367l-40.648,42.285-55.6,57.858c-.475.522-5.8,6.088-6.407,6.714-1.373,1.46-13.9,14.365-15.613,16.139a6.106,6.106,0,0,1-4.544,1.856c-10.749,0-29.052-21.736-33.85-32.59l-2.916-6.881-.17-.417a1.963,1.963,0,0,0-.1-.208L155.2,469.752c-2.452-5.746-5.92-20.126-5.92-29.972,0-3.623.468-6.633,1.632-8.372,1.442-2.147,1.272-8.653,3.407-10.007,6.5-4.185,9.269-14.324,12.184-14.324.918,0,1.851,1.005,2.919,3.524l1.323,3.105h0l-1.323-3.105c-1.067-2.519-2-3.524-2.919-3.524-2.916,0-5.687,10.139-12.184,14.324-2.135,1.354-1.966,7.86-3.407,10.007-1.163,1.74-1.632,4.749-1.632,8.372,0,9.846,3.468,24.226,5.92,29.972l33.835,79.586a1.963,1.963,0,0,1,.1.208l.17.417,2.916,6.881c4.8,10.854,23.1,32.59,33.85,32.59a6.106,6.106,0,0,0,4.544-1.856c1.712-1.773,14.24-14.679,15.613-16.139.609-.626,5.932-6.192,6.407-6.714l55.6-57.858,40.648-42.285c3-3.148,8.611-10.988,9.492-15.367.97-4.775,3.483-12.813,3.483-19.139a11.756,11.756,0,0,0-1.585-6.632c-4.869-7.09-7.459-14.828-11.709-14.828-1.4,0-2.983.84-4.884,2.818l-2.306,2.376-.2.229-30.156,31.4Z" transform="translate(78.283 -30.905)" stroke="#0063b0" stroke-miterlimit="10" stroke-width="0.25" fill="url(#linear-gradient-18)"/>
            <path id="Path_41-2" data-name="Path 41" d="M305.853,442.43,317.7,430.085l.136-.145,1.17-1.21c.968-1,1.685-1.435,2.242-1.435,2.394,0,1.791,8.019,5.3,13.112a5.327,5.327,0,0,1,.728,3.016c0,4.957-3.483,12.865-4.2,16.478-.609,2.919-5.779,9.613-7.763,11.719l-31.732,33.025-43.43,45.163c-.509.582-4.255,4.5-4.915,5.17-1.442,1.565-10.442,10.843-12.273,12.72a2.88,2.88,0,0,1-2.145.88c-7.612,0-24.1-23.206-27.452-30.823l-2.338-5.5-.119-.271-.067-.147-27.868-65.512c-1.816-4.263-6.078-19.42-6.078-27.286a7.872,7.872,0,0,1,.772-4.071c.948-1.439.067-7.612,1.492-8.529,4.8-3.053,4.2-16.531,5.667-16.531.277,0,.624.475,1.1,1.581l-.339-.793h0l.339.793c-.472-1.107-.821-1.581-1.1-1.581-1.47,0-.871,13.478-5.667,16.531-1.425.917-.544,7.09-1.492,8.529a7.872,7.872,0,0,0-.772,4.071c0,7.866,4.262,23.022,6.078,27.286l27.868,65.512.067.147.119.271,2.338,5.5c3.349,7.616,19.84,30.823,27.452,30.823a2.88,2.88,0,0,0,2.145-.88c1.831-1.877,10.831-11.155,12.273-12.72.66-.667,4.406-4.588,4.915-5.17l43.43-45.163,31.732-33.025c1.984-2.106,7.154-8.8,7.763-11.719.722-3.613,4.2-11.521,4.2-16.478a5.327,5.327,0,0,0-.728-3.016c-3.51-5.093-2.907-13.112-5.3-13.112-.557,0-1.274.434-2.242,1.435l-1.17,1.21-.136.145L305.853,442.43Z" transform="translate(83.448 -27.893)" stroke="#0063b0" stroke-miterlimit="10" stroke-width="0.25" fill="url(#linear-gradient-19)"/>
            <path id="Path_42-2" data-name="Path 42" d="M302.341,442.023l-6.476,6.735.067-.083.069-.064c.275-.287.448-.417.542-.417.059,0,.084.052.084.149,0,.96-2.619,6.357-2.619,9.726a3.357,3.357,0,0,0,.467,1.906,1.324,1.324,0,0,1,.188.758c0,2.866-4.861,10.432-5.274,12.462-.287,1.439-5.017,7.026-6.017,8.089l-22.816,23.728-31.24,32.505c-.525.584-2.729,2.919-3.407,3.628-1.542,1.648-7.018,7.3-8.951,9.258a.756.756,0,0,1-.564.235c-4.035,0-18.482-25.329-20.234-29.321l-1.779-4.168-.052-.126-.034-.083L172.41,465.458c-1.009-2.372-6.558-18.565-6.558-23.268a2.1,2.1,0,0,1,.2-1.084,1.075,1.075,0,0,0,.1-.549c0-1.29-.687-4.259-.687-5.68,0-.392.052-.667.185-.756.567-.365.787-1.482.787-3.01,0-5.267-2.608-15.41-2.608-16.459,0-.058.007-.089.024-.089.035,0,.106.126.222.4l-2-4.672h0l2,4.672c-.116-.27-.186-.4-.222-.4-.017,0-.024.031-.024.089,0,1.049,2.608,11.192,2.608,16.459,0,1.528-.22,2.645-.787,3.01-.133.091-.185.363-.185.756,0,1.42.687,4.389.687,5.68a1.075,1.075,0,0,1-.1.549,2.1,2.1,0,0,0-.2,1.084c0,4.7,5.549,20.9,6.558,23.268l21.884,51.481.034.083.052.126,1.779,4.168c1.752,3.995,16.2,29.321,20.234,29.321a.756.756,0,0,0,.564-.235c1.934-1.959,7.409-7.61,8.951-9.258.678-.708,2.882-3.043,3.407-3.628l31.24-32.505,22.816-23.728c1-1.063,5.73-6.65,6.017-8.089.413-2.03,5.274-9.6,5.274-12.462a1.324,1.324,0,0,0-.188-.758,3.357,3.357,0,0,1-.467-1.906c0-3.369,2.619-8.766,2.619-9.726,0-.1-.027-.149-.084-.149-.094,0-.267.13-.542.417l-.069.064-.067.083,6.476-6.735Z" transform="translate(86.96 -27.487)" stroke="#0063b0" stroke-miterlimit="10" stroke-width="0.25" fill="url(#linear-gradient-20)"/>
            <path id="Path_43-2" data-name="Path 43" d="M302.341,442.023l-61.3,63.8-19.053,19.808c-1.814,2.021-4.594,4.9-7.51,7.9L162.07,410.288h0l52.413,123.246c2.916-3,5.7-5.88,7.51-7.9l19.053-19.808,61.3-63.8Z" transform="translate(86.96 -27.487)" stroke="#0063b0" stroke-miterlimit="10" stroke-width="0.25" fill="url(#linear-gradient-21)"/>
          </g>
          <rect id="Rectangle_9-2" data-name="Rectangle 9" width="953.162" height="878.835" fill="none" stroke="#0063b0" stroke-miterlimit="10" stroke-width="0.25"/>
        </g>
      </g>
      <path id="Path_8545-2" data-name="Path 8545" d="M0,0H953.155V878.835H0Z" transform="translate(13.708 224.876)" fill="none"/>
    </g>
  </g>
</svg>
