<svg xmlns="http://www.w3.org/2000/svg" width="55" height="55" viewBox="0 0 55 55">
  <g id="Group_4879" data-name="Group 4879" transform="translate(-1139.5 -845)">
    <g id="Group_114" data-name="Group 114" transform="translate(1139.5 845)">
      <rect id="Rectangle_25" data-name="Rectangle 25" width="55" height="55" rx="15" fill="#f4f7fb"/>
    </g>
    <g id="wheelchair" transform="translate(1100.822 856.133)">
      <g id="Group_4896" data-name="Group 4896" transform="translate(62.76 9.547)">
        <g id="Group_4895" data-name="Group 4895">
          <path id="Path_8902" data-name="Path 8902" d="M218.91,169.422l-.96-6.294a4.768,4.768,0,0,0-4.745-4.247h-4.521A.682.682,0,0,1,208,158.2v-2.445l.765.765a3.393,3.393,0,0,0,2.411,1h2.961a2.046,2.046,0,1,0,0-4.092h-2.162a.677.677,0,0,1-.481-.2l-2.894-2.893a3.393,3.393,0,0,0-2.411-1h-1.6a2.048,2.048,0,0,0-2.046,2.046v8.183a4.779,4.779,0,0,0,4.774,4.774h4.3a.691.691,0,0,1,.679.6l1.139,5.273a2.765,2.765,0,0,0,5.472-.788Zm-1.7,1.267a1.39,1.39,0,0,1-1.045.466,1.411,1.411,0,0,1-1.39-1.2l-1.139-5.273a2.039,2.039,0,0,0-2.017-1.709h-4.3a3.414,3.414,0,0,1-3.41-3.41v-8.183a.682.682,0,0,1,.682-.682h1.6a2.053,2.053,0,0,1,1.446.6l2.894,2.893a2.038,2.038,0,0,0,1.447.6h2.162a.682.682,0,1,1,0,1.364h-2.961a2.053,2.053,0,0,1-1.446-.6l-1.93-1.929a.683.683,0,0,0-1.165.483V158.2a2.048,2.048,0,0,0,2.046,2.046H213.2a3.415,3.415,0,0,1,3.393,3.062l.96,6.294A1.377,1.377,0,0,1,217.211,170.689Z" transform="translate(-202.546 -149.333)" fill="#306db5"/>
        </g>
      </g>
      <g id="Group_4898" data-name="Group 4898" transform="translate(61.396)">
        <g id="Group_4897" data-name="Group 4897" transform="translate(0)">
          <path id="Path_8903" data-name="Path 8903" d="M185.3,0A4.092,4.092,0,1,0,189.4,4.092,4.1,4.1,0,0,0,185.3,0Zm0,6.819a2.728,2.728,0,1,1,2.728-2.728A2.731,2.731,0,0,1,185.3,6.819Z" transform="translate(-181.213 0)" fill="#7eb7db"/>
        </g>
      </g>
      <g id="Group_4900" data-name="Group 4900" transform="translate(53.213 15.126)">
        <g id="Group_4899" data-name="Group 4899" transform="translate(0)">
          <path id="Path_8904" data-name="Path 8904" d="M70.013,247.423a.681.681,0,0,0-.87.415,7.5,7.5,0,1,1-8.316-9.888A.682.682,0,1,0,60.6,236.6a8.861,8.861,0,1,0,9.827,11.689A.681.681,0,0,0,70.013,247.423Z" transform="translate(-53.213 -236.595)" fill="#306db5"/>
        </g>
      </g>
    </g>
  </g>
</svg>
