<svg xmlns="http://www.w3.org/2000/svg" width="55" height="55" viewBox="0 0 55 55">
  <g id="Group_5039" data-name="Group 5039" transform="translate(-1120 -949)">
    <g id="Group_4879" data-name="Group 4879" transform="translate(-19.5 104.081)">
      <g id="Group_114" data-name="Group 114" transform="translate(1139.5 844.919)">
        <rect id="Rectangle_25" data-name="Rectangle 25" width="55" height="55" rx="15" fill="#f4f7fb"/>
      </g>
    </g>
    <g id="baby_1_" data-name="baby (1)" transform="translate(1131.773 960.716)">
      <path id="Path_8948" data-name="Path 8948" d="M303.531,164.583a2.054,2.054,0,0,0-2.052,2.052v5.014q0,.077,0,.154c-.038-.038-.076-.074-.117-.11a2.126,2.126,0,0,0-2.861.1l-2.182,2.153a5.685,5.685,0,0,0-3.708,7.912.612.612,0,0,0-.39.571v2.881a.614.614,0,0,0,.614.614h6.9a.614.614,0,0,0,.614-.614v-2.881a.611.611,0,0,0-.146-.4,9.5,9.5,0,0,1,2.224-3.074l.248-.227a9,9,0,0,0,2.912-6.62v-5.475a2.054,2.054,0,0,0-2.052-2.052ZM299.117,184.7h-5.671v-1.653h5.671Zm5.238-12.585a7.772,7.772,0,0,1-2.514,5.715l-.248.227a10.726,10.726,0,0,0-2.638,3.762h-5.01c-.042-.1-.089-.2-.141-.3a4.458,4.458,0,0,1,.481-4.863,4.471,4.471,0,0,1,2.476-1.546.614.614,0,0,0,.3-.162l2.3-2.272a.885.885,0,0,1,1.294,1.205l-1.68,1.964a.614.614,0,1,0,.934.8l1.687-1.973a4.639,4.639,0,0,0,1.112-3.013v-5.014a.824.824,0,0,1,1.647,0Z" transform="translate(-274.128 -154.416)" fill="#306db5"/>
      <path id="Path_8949" data-name="Path 8949" d="M12.253,175.875a5.709,5.709,0,0,0-2.984-1.929l-2.182-2.153a2.126,2.126,0,0,0-2.861-.1c-.041.035-.08.072-.117.11q0-.077,0-.154v-5.014a2.052,2.052,0,0,0-4.1,0v5.475a9,9,0,0,0,2.912,6.62l.248.227a9.493,9.493,0,0,1,2.224,3.074.611.611,0,0,0-.145.4v2.881a.614.614,0,0,0,.614.614h6.9a.614.614,0,0,0,.614-.614v-2.881a.613.613,0,0,0-.39-.571,5.685,5.685,0,0,0-.724-5.983ZM3.99,178.052l-.248-.227a7.772,7.772,0,0,1-2.514-5.715v-5.475a.824.824,0,0,1,1.647,0v5.014a4.639,4.639,0,0,0,1.112,3.013l1.687,1.973a.614.614,0,1,0,.934-.8l-.169-.2-1.51-1.766a.885.885,0,0,1,1.294-1.205l2.3,2.272a.614.614,0,0,0,.3.162,4.471,4.471,0,0,1,2.476,1.546,4.458,4.458,0,0,1,.481,4.863c-.052.1-.1.2-.141.3H6.628a10.726,10.726,0,0,0-2.638-3.762Zm8.148,6.643H6.466v-1.653h5.671Z" transform="translate(0 -154.416)" fill="#306db5"/>
      <path id="Path_8950" data-name="Path 8950" d="M137.6,12.187a7.106,7.106,0,0,0,0-10.049h0a7.114,7.114,0,0,0-10.049,0L122.385,7.3A7.106,7.106,0,0,0,132.434,17.35Zm-9.18-9.18a5.877,5.877,0,1,1,8.311,8.311l-1.49,1.49A13.789,13.789,0,0,0,133.72,11.6a4.536,4.536,0,1,0-5.533-5.533,14.029,14.029,0,0,0-1.249-1.576Zm1.822,6.536a3.307,3.307,0,1,1,2.338.969,3.285,3.285,0,0,1-2.338-.969Zm-6.985,6.938a5.884,5.884,0,0,1,0-8.311l2.814-2.814a12.75,12.75,0,0,1,2.7,12.494.612.612,0,0,0-.029.2A5.877,5.877,0,0,1,123.254,16.481Zm6.884,1.05a14.032,14.032,0,0,0,.2-6.329,12.537,12.537,0,0,1,4.028,2.475l-2.8,2.8A5.858,5.858,0,0,1,130.138,17.532Z" transform="translate(-112.917)" fill="#7eb7db"/>
      <path id="Path_8951" data-name="Path 8951" d="M296.3,84.889a.614.614,0,1,0-.869.869l.272.272a.614.614,0,1,0,.869-.869Z" transform="translate(-277.115 -79.449)" fill="#7eb7db"/>
      <path id="Path_8952" data-name="Path 8952" d="M328.324,116.912a.614.614,0,0,0-.869.869l.273.272a.614.614,0,0,0,.869-.869Z" transform="translate(-307.172 -109.505)" fill="#7eb7db"/>
      <path id="Path_8953" data-name="Path 8953" d="M288.648,122.054a.614.614,0,0,0-1.2.182,1.02,1.02,0,0,0,1.019,1.019.614.614,0,0,0,.182-1.2Z" transform="translate(-269.79 -114.094)" fill="#7eb7db"/>
    </g>
  </g>
</svg>
