<svg xmlns="http://www.w3.org/2000/svg" xmlns:xlink="http://www.w3.org/1999/xlink" width="55" height="55" viewBox="0 0 55 55">
  <defs>
    <linearGradient id="linear-gradient" x1="-3.115" y1="8.051" x2="0.197" y2="8.076" gradientUnits="objectBoundingBox">
      <stop offset="0" stop-color="#2c6bb7"/>
      <stop offset="1" stop-color="#7cb6dd"/>
    </linearGradient>
    <clipPath id="clip-path">
      <path id="Path_8215" data-name="Path 8215" d="M1207.151,243.378a.65.65,0,1,0,0,1.3h4.893a.65.65,0,1,0,0-1.3Z" transform="translate(-1206.501 -243.378)" fill="url(#linear-gradient)"/>
    </clipPath>
  </defs>
  <g id="Group_4973" data-name="Group 4973" transform="translate(-1139.5 -844.919)">
    <g id="Group_114" data-name="Group 114" transform="translate(1139.5 844.919)">
      <rect id="Rectangle_25" data-name="Rectangle 25" width="55" height="55" rx="15" fill="#f4f7fb"/>
    </g>
    <g id="Group_4972" data-name="Group 4972" transform="translate(1152.912 860.49)">
      <g id="Group_4351" data-name="Group 4351" transform="translate(20.901 0)">
        <g id="Group_4350" data-name="Group 4350" transform="translate(0)" clip-path="url(#clip-path)">
          <rect id="Rectangle_9432" data-name="Rectangle 9432" width="6.193" height="1.3" transform="translate(0 0)" fill="url(#linear-gradient)"/>
        </g>
      </g>
      <rect id="Rectangle_9450" data-name="Rectangle 9450" width="6.374" height="1.275" rx="0.637" transform="translate(20.917 0)" fill="url(#linear-gradient)"/>
      <rect id="Rectangle_9451" data-name="Rectangle 9451" width="8.195" height="1.457" rx="0.728" transform="translate(19.642 1.639)" fill="url(#linear-gradient)"/>
      <rect id="Rectangle_9452" data-name="Rectangle 9452" width="8.924" height="1.275" rx="0.637" transform="translate(18.367 3.46)" fill="url(#linear-gradient)"/>
      <rect id="Rectangle_9453" data-name="Rectangle 9453" width="8.742" height="1.093" rx="0.546" transform="translate(17.275 5.281)" fill="url(#linear-gradient)"/>
      <rect id="Rectangle_9454" data-name="Rectangle 9454" width="8.924" height="1.275" rx="0.637" transform="translate(15.818 6.921)" fill="url(#linear-gradient)"/>
      <rect id="Rectangle_9455" data-name="Rectangle 9455" width="8.924" height="1.093" rx="0.546" transform="translate(14.725 8.742)" fill="url(#linear-gradient)"/>
      <rect id="Rectangle_9456" data-name="Rectangle 9456" width="8.924" height="1.275" rx="0.637" transform="translate(13.45 10.381)" fill="url(#linear-gradient)"/>
      <rect id="Rectangle_9457" data-name="Rectangle 9457" width="9.106" height="1.275" rx="0.637" transform="translate(11.993 12.202)" fill="url(#linear-gradient)"/>
      <rect id="Rectangle_9458" data-name="Rectangle 9458" width="8.924" height="1.275" rx="0.637" transform="translate(10.9 13.841)" fill="url(#linear-gradient)"/>
      <rect id="Rectangle_9459" data-name="Rectangle 9459" width="9.47" height="1.275" rx="0.637" transform="translate(0.338 13.841)" fill="url(#linear-gradient)"/>
      <rect id="Rectangle_9462" data-name="Rectangle 9462" width="16.755" height="1.457" rx="0.728" transform="translate(1.795 15.48)" fill="url(#linear-gradient)"/>
      <rect id="Rectangle_9463" data-name="Rectangle 9463" width="14.023" height="1.457" rx="0.728" transform="translate(3.251 17.301)" fill="url(#linear-gradient)"/>
      <rect id="Rectangle_9464" data-name="Rectangle 9464" width="11.291" height="1.275" rx="0.637" transform="translate(4.708 19.123)" fill="url(#linear-gradient)"/>
      <rect id="Rectangle_9465" data-name="Rectangle 9465" width="8.742" height="1.457" rx="0.728" transform="translate(6.165 20.762)" fill="url(#linear-gradient)"/>
      <rect id="Rectangle_9466" data-name="Rectangle 9466" width="5.646" height="1.275" rx="0.637" transform="translate(7.804 22.583)" fill="url(#linear-gradient)"/>
      <rect id="Rectangle_9460" data-name="Rectangle 9460" width="7.285" height="1.275" rx="0.637" transform="translate(0.338 12.202)" fill="url(#linear-gradient)"/>
      <rect id="Rectangle_9461" data-name="Rectangle 9461" width="3.642" height="1.275" rx="0.637" transform="translate(1.795 10.381)" fill="url(#linear-gradient)"/>
    </g>
  </g>
</svg>
