<svg xmlns="http://www.w3.org/2000/svg" width="55" height="55" viewBox="0 0 55 55">
  <g id="Group_4879" data-name="Group 4879" transform="translate(-1139.5 -844.919)">
    <g id="Group_114" data-name="Group 114" transform="translate(1139.5 844.919)">
      <rect id="Rectangle_25" data-name="Rectangle 25" width="55" height="55" rx="15" fill="#f4f7fb"/>
    </g>
    <g id="check-list" transform="translate(1154.5 857.92)">
      <path id="Path_9033" data-name="Path 9033" d="M192.578,452a.578.578,0,1,0,.409.169A.583.583,0,0,0,192.578,452Zm0,0" transform="translate(-180.9 -425.869)" fill="#7eb7db"/>
      <path id="Path_9034" data-name="Path 9034" d="M28.982,7.88a2.109,2.109,0,0,0-2.98,0l-2.647,2.647V1.965A1.968,1.968,0,0,0,21.39,0H1.965A1.968,1.968,0,0,0,0,1.965V27.634A1.968,1.968,0,0,0,1.965,29.6H21.39a1.968,1.968,0,0,0,1.966-1.966V16.487l5.627-5.627a2.109,2.109,0,0,0,0-2.98ZM22.2,1.965v9.718L21.043,12.84V2.89a.578.578,0,0,0-.578-.578H16.6V1.156H21.39a.81.81,0,0,1,.809.809ZM19.043,17.82l.78-1.753.973.973Zm-3.6-16.664V3.511a.651.651,0,0,1-.65.65H8.561a.651.651,0,0,1-.65-.65V1.156ZM21.39,28.443H1.965a.81.81,0,0,1-.809-.809V1.965a.81.81,0,0,1,.809-.809H6.754V2.312H2.89a.578.578,0,0,0-.578.578V26.709a.578.578,0,0,0,.578.578H9.365a.578.578,0,1,0,0-1.156h-5.9V3.468H6.754v.043A1.809,1.809,0,0,0,8.561,5.318h6.234A1.809,1.809,0,0,0,16.6,3.511V3.468h3.286V14l-.659.658a.585.585,0,0,0-.119.174l-1.735,3.9a.578.578,0,0,0,.763.764l1.75-.779v7.421h-5.9a.578.578,0,1,0,0,1.156h6.475a.578.578,0,0,0,.578-.578V18.195l.992-.441a.576.576,0,0,0,.165-.111v9.991a.81.81,0,0,1-.809.809ZM26.01,12.2l-4.21,4.21-1.345-1.345L25.668,9.85l1.345,1.345Zm2.155-2.155-.335.334L26.486,9.033,26.82,8.7a.951.951,0,0,1,1.345,1.345Zm0,0" fill="#306db5"/>
      <path id="Path_9035" data-name="Path 9035" d="M92.278,120h-3.7a.578.578,0,0,0-.578.578v3.7a.578.578,0,0,0,.578.578h3.7a.578.578,0,0,0,.578-.578v-3.7A.578.578,0,0,0,92.278,120Zm-.578,3.7H89.156v-2.544H91.7Zm0,0" transform="translate(-82.913 -113.063)" fill="#7eb7db"/>
      <path id="Path_9036" data-name="Path 9036" d="M92.278,230h-3.7a.578.578,0,0,0-.578.578v3.7a.578.578,0,0,0,.578.578h3.7a.578.578,0,0,0,.578-.578v-3.7A.578.578,0,0,0,92.278,230Zm-.578,3.7H89.156v-2.544H91.7Zm0,0" transform="translate(-82.913 -216.704)" fill="#7eb7db"/>
      <path id="Path_9037" data-name="Path 9037" d="M92.278,340h-3.7a.578.578,0,0,0-.578.578v3.7a.578.578,0,0,0,.578.578h3.7a.578.578,0,0,0,.578-.578v-3.7A.578.578,0,0,0,92.278,340Zm-.578,3.7H89.156v-2.544H91.7Zm0,0" transform="translate(-82.913 -320.344)" fill="#7eb7db"/>
      <path id="Path_9038" data-name="Path 9038" d="M209.857,133.023a.578.578,0,0,0,.818,0l2.61-2.61a.578.578,0,0,0-.818-.818l-2.2,2.2-.877-.877a.578.578,0,1,0-.818.818Zm0,0" transform="translate(-196.353 -121.945)" fill="#7eb7db"/>
      <path id="Path_9039" data-name="Path 9039" d="M209.857,243.026a.578.578,0,0,0,.818,0l2.61-2.61a.578.578,0,0,0-.818-.818l-2.2,2.2-.877-.877a.578.578,0,1,0-.818.817Zm0,0" transform="translate(-196.353 -225.588)" fill="#7eb7db"/>
      <path id="Path_9040" data-name="Path 9040" d="M221.41,352.127l.9.9a.578.578,0,0,0,.818-.817l-.9-.9.9-.9a.578.578,0,0,0-.818-.817l-.9.9-.9-.9a.578.578,0,0,0-.818.817l.9.9-.9.9a.578.578,0,1,0,.818.817Zm0,0" transform="translate(-206.836 -329.226)" fill="#7eb7db"/>
    </g>
  </g>
</svg>
