<svg xmlns="http://www.w3.org/2000/svg" width="18" height="18" viewBox="0 0 18 18">
  <g id="Group_4250" data-name="Group 4250" transform="translate(-266 -6335)">
    <path id="twitter" d="M5.827,13.319a5.221,5.221,0,0,0,5.254-5.255c0-.079,0-.158,0-.238A3.762,3.762,0,0,0,12,6.868a3.743,3.743,0,0,1-1.062.292,1.858,1.858,0,0,0,.814-1.023,3.674,3.674,0,0,1-1.175.447A1.847,1.847,0,0,0,7.383,7.848a2.04,2.04,0,0,0,.047.421A5.244,5.244,0,0,1,3.623,6.338,1.852,1.852,0,0,0,4.2,8.805a1.868,1.868,0,0,1-.836-.23V8.6a1.851,1.851,0,0,0,1.481,1.812,1.8,1.8,0,0,1-.486.065,1.822,1.822,0,0,1-.347-.032,1.847,1.847,0,0,0,1.725,1.283,3.7,3.7,0,0,1-2.294.792A3.553,3.553,0,0,1,3,12.494a5.253,5.253,0,0,0,2.828.825" transform="translate(268 6335)" fill="#f0f3f8"/>
    <g id="Path_8138" data-name="Path 8138" transform="translate(266 6335)" fill="none" opacity="0.5">
      <path d="M9,0A9,9,0,1,1,0,9,9,9,0,0,1,9,0Z" stroke="none"/>
      <path d="M 9 0.5000038146972656 C 4.313079833984375 0.5000038146972656 0.5 4.313103675842285 0.5 9.000033378601074 C 0.5 13.68696403503418 4.313079833984375 17.50006294250488 9 17.50006294250488 C 13.68692016601562 17.50006294250488 17.5 13.68696403503418 17.5 9.000033378601074 C 17.5 4.313103675842285 13.68692016601562 0.5000038146972656 9 0.5000038146972656 M 9 3.814697265625e-06 C 13.97056007385254 3.814697265625e-06 18 4.029453277587891 18 9.000033378601074 C 18 13.97061347961426 13.97056007385254 18.00006294250488 9 18.00006294250488 C 4.029439926147461 18.00006294250488 0 13.97061347961426 0 9.000033378601074 C 0 4.029453277587891 4.029439926147461 3.814697265625e-06 9 3.814697265625e-06 Z" stroke="none" fill="#f0f3f8"/>
    </g>
  </g>
</svg>
