<svg xmlns="http://www.w3.org/2000/svg" width="55" height="55" viewBox="0 0 55 55">
  <g id="Group_4879" data-name="Group 4879" transform="translate(-1139.5 -844.919)">
    <g id="Group_114" data-name="Group 114" transform="translate(1139.5 844.919)">
      <rect id="Rectangle_25" data-name="Rectangle 25" width="55" height="55" rx="15" fill="#f4f7fb"/>
    </g>
    <g id="checklist" transform="translate(1132.5 857.919)">
      <path id="Path_9013" data-name="Path 9013" d="M38.521,3.447H36.511V2.585a.862.862,0,0,0-.862-.862H33.972L33.594.589A.862.862,0,0,0,32.777,0H29.33a.862.862,0,0,0-.817.589l-.378,1.134H26.457a.862.862,0,0,0-.862.862v.862H23.585A2.588,2.588,0,0,0,21,6.032v20.8a2.588,2.588,0,0,0,2.585,2.585H38.521a2.588,2.588,0,0,0,2.585-2.585V6.032A2.588,2.588,0,0,0,38.521,3.447Zm-11.2,0h1.436a.862.862,0,0,0,.817-.589l.378-1.134h2.2l.378,1.134a.862.862,0,0,0,.817.589h1.436V5.17H27.319ZM39.383,26.828a.863.863,0,0,1-.862.862H23.585a.863.863,0,0,1-.862-.862V6.032a.863.863,0,0,1,.862-.862H25.6v.862a.862.862,0,0,0,.862.862h9.191a.862.862,0,0,0,.862-.862V5.17h2.011a.863.863,0,0,1,.862.862Z" fill="#306db5"/>
      <path id="Path_9014" data-name="Path 9014" d="M84.909,159.039l-1.828,1.828-.609-.609a.862.862,0,1,0-1.219,1.219l1.219,1.219a.862.862,0,0,0,1.219,0l2.437-2.437a.862.862,0,0,0-1.219-1.219Z" transform="translate(-56.554 -149.665)" fill="#7eb7db"/>
      <path id="Path_9015" data-name="Path 9015" d="M206.457,180h-4.6a.862.862,0,0,0,0,1.723h4.6a.862.862,0,1,0,0-1.723Z" transform="translate(-169.66 -169.66)" fill="#7eb7db"/>
      <path id="Path_9016" data-name="Path 9016" d="M84.909,249.039l-1.828,1.828-.609-.609a.862.862,0,0,0-1.219,1.219l1.219,1.219a.862.862,0,0,0,1.219,0l2.437-2.437a.862.862,0,0,0-1.219-1.219Z" transform="translate(-56.554 -234.495)" fill="#7eb7db"/>
      <path id="Path_9017" data-name="Path 9017" d="M206.457,270h-4.6a.862.862,0,0,0,0,1.723h4.6a.862.862,0,1,0,0-1.723Z" transform="translate(-169.66 -254.489)" fill="#7eb7db"/>
      <path id="Path_9018" data-name="Path 9018" d="M84.909,339.039l-1.828,1.828-.609-.609a.862.862,0,0,0-1.219,1.219l1.219,1.219a.861.861,0,0,0,1.219,0l2.437-2.437a.862.862,0,0,0-1.219-1.219Z" transform="translate(-56.554 -319.325)" fill="#7eb7db"/>
      <path id="Path_9019" data-name="Path 9019" d="M206.457,360h-4.6a.862.862,0,0,0,0,1.723h4.6a.862.862,0,1,0,0-1.723Z" transform="translate(-169.66 -339.319)" fill="#7eb7db"/>
      <path id="Path_9020" data-name="Path 9020" d="M403.585,60A2.588,2.588,0,0,0,401,62.585V79.819a.861.861,0,0,0,.044.272l1.723,5.17a.862.862,0,0,0,1.635,0l1.723-5.17a.861.861,0,0,0,.044-.272V62.585A2.588,2.588,0,0,0,403.585,60Zm0,22.264-.528-1.584h1.056Zm.862-3.307h-1.723V66.319h1.723Zm0-14.362h-1.723V62.585a.862.862,0,0,1,1.723,0Z" transform="translate(-358.17 -56.553)" fill="#306db5"/>
    </g>
  </g>
</svg>
